Nobile-Bold.ufo
<glyph name="numbersign" format="1">
  <advance width="1319"/>
  <unicode hex="0023"/>
  <outline>
    <contour>
      <point x="164" y="0" type="line"/>
      <point x="348" y="0" type="line"/>
      <point x="641" y="1489" type="line"/>
      <point x="440" y="1489" type="line"/>
    </contour>
    <contour>
      <point x="96" y="483" type="line"/>
      <point x="1220" y="483" type="line"/>
      <point x="1220" y="609" type="line"/>
      <point x="96" y="609" type="line"/>
    </contour>
    <contour>
      <point x="125" y="860" type="line"/>
      <point x="1248" y="860" type="line"/>
      <point x="1248" y="986" type="line"/>
      <point x="125" y="986" type="line"/>
    </contour>
    <contour>
      <point x="701" y="0" type="line"/>
      <point x="885" y="0" type="line"/>
      <point x="1178" y="1489" type="line"/>
      <point x="976" y="1489" type="line"/>
    </contour>
  </outline>
</glyph>
<glyph name="dollar" format="1">
  <advance width="1002"/>
  <unicode hex="0024"/>
  <outline>
    <contour>
      <point x="335" y="-176" type="line"/>
      <point x="427" y="-176" type="line"/>
      <point x="671" y="1535" type="line"/>
      <point x="579" y="1535" type="line"/>
    </contour>
    <component base="s" xOffset="-16" yOffset="89"/>
  </outline>
</glyph>
<glyph name="quotesingle" format="1">
  <advance width="694"/>
  <unicode hex="0027"/>
  <outline>
    <contour>
      <point x="256" y="862" type="line"/>
      <point x="414" y="862" type="line"/>
      <point x="483" y="1408" type="line"/>
      <point x="484" y="1415"/>
      <point x="483" y="1481"/>
      <point x="483" y="1489" type="curve"/>
      <point x="190" y="1489" type="line"/>
      <point x="190" y="1481"/>
      <point x="189" y="1415"/>
      <point x="190" y="1408" type="curve"/>
    </contour>
  </outline>
</glyph>
<glyph name="parenleft" format="1">
  <advance width="865"/>
  <unicode hex="0028"/>
  <outline>
    <contour>
      <point x="618" y="-252" type="curve"/>
      <point x="752" y="-105" type="line"/>
      <point x="575" y="72"/>
      <point x="488" y="368"/>
      <point x="488" y="673" type="curve" smooth="yes"/>
      <point x="488" y="979"/>
      <point x="581" y="1294"/>
      <point x="765" y="1486" type="curve"/>
      <point x="618" y="1631" type="line"/>
      <point x="330" y="1415"/>
      <point x="187" y="1050"/>
      <point x="187" y="684" type="curve" smooth="yes"/>
      <point x="187" y="322"/>
      <point x="330" y="-40"/>
    </contour>
  </outline>
</glyph>
<glyph name="hyphen" format="1">
  <advance width="1050"/>
  <unicode hex="002D"/>
  <outline>
    <contour>
      <point x="156" y="532" type="line"/>
      <point x="884" y="532" type="line"/>
      <point x="884" y="749" type="line"/>
      <point x="156" y="749" type="line"/>
    </contour>
  </outline>
</glyph>
<glyph name="period" format="1">
  <advance width="593"/>
  <unicode hex="002E"/>
  <outline>
    <contour>
      <point x="300" y="-2" type="curve" smooth="yes"/>
      <point x="395" y="-2"/>
      <point x="470" y="71"/>
      <point x="470" y="167" type="curve" smooth="yes"/>
      <point x="470" y="262"/>
      <point x="394" y="337"/>
      <point x="300" y="337" type="curve" smooth="yes"/>
      <point x="205" y="337"/>
      <point x="131" y="262"/>
      <point x="131" y="167" type="curve" smooth="yes"/>
      <point x="131" y="75"/>
      <point x="202" y="-2"/>
    </contour>
  </outline>
</glyph>
<glyph name="slash" format="1">
  <advance width="911"/>
  <unicode hex="002F"/>
  <outline>
    <contour>
      <point x="102" y="-155" type="line"/>
      <point x="941" y="1556" type="line"/>
      <point x="780" y="1631" type="line"/>
      <point x="-55" y="-82" type="line"/>
    </contour>
  </outline>
</glyph>
<glyph name="zero" format="1">
  <advance width="1353"/>
  <unicode hex="0030"/>
  <outline>
    <contour>
      <point x="672" y="205" type="curve" smooth="yes"/>
      <point x="479" y="205"/>
      <point x="413" y="354"/>
      <point x="413" y="550" type="curve" smooth="yes"/>
      <point x="413" y="721"/>
      <point x="472" y="891"/>
      <point x="672" y="891" type="curve" smooth="yes"/>
      <point x="869" y="891"/>
      <point x="938" y="736"/>
      <point x="938" y="560" type="curve" smooth="yes"/>
      <point x="938" y="371"/>
      <point x="876" y="205"/>
    </contour>
    <contour>
      <point x="671" y="-20" type="curve" smooth="yes"/>
      <point x="1025" y="-20"/>
      <point x="1224" y="210"/>
      <point x="1224" y="542" type="curve" smooth="yes"/>
      <point x="1224" y="884"/>
      <point x="1037" y="1116"/>
      <point x="672" y="1116" type="curve" smooth="yes"/>
      <point x="315" y="1116"/>
      <point x="125" y="892"/>
      <point x="125" y="548" type="curve" smooth="yes"/>
      <point x="125" y="218"/>
      <point x="315" y="-20"/>
    </contour>
  </outline>
</glyph>
<glyph name="one" format="1">
  <advance width="892"/>
  <unicode hex="0031"/>
  <outline>
    <contour>
      <point x="383" y="0" type="line"/>
      <point x="685" y="0" type="line"/>
      <point x="685" y="1097" type="line"/>
      <point x="396" y="1097" type="line"/>
      <point x="109" y="957" type="line"/>
      <point x="191" y="763" type="line"/>
      <point x="383" y="852" type="line"/>
    </contour>
  </outline>
</glyph>
<glyph name="five" format="1">
  <advance width="1158"/>
  <unicode hex="0035"/>
  <outline>
    <contour>
      <point x="543" y="-183" type="curve" smooth="yes"/>
      <point x="815" y="-183"/>
      <point x="1013" y="-12"/>
      <point x="1013" y="251" type="curve" smooth="yes"/>
      <point x="1013" y="468"/>
      <point x="887" y="677"/>
      <point x="628" y="677" type="curve" smooth="yes"/>
      <point x="568" y="677"/>
      <point x="487" y="664"/>
      <point x="426" y="628" type="curve"/>
      <point x="426" y="881" type="line"/>
      <point x="933" y="881" type="line"/>
      <point x="933" y="1096" type="line"/>
      <point x="184" y="1096" type="line"/>
      <point x="184" y="510" type="line"/>
      <point x="304" y="401" type="line"/>
      <point x="395" y="451"/>
      <point x="478" y="480"/>
      <point x="547" y="480" type="curve" smooth="yes"/>
      <point x="682" y="480"/>
      <point x="752" y="390"/>
      <point x="752" y="251" type="curve" smooth="yes"/>
      <point x="752" y="117"/>
      <point x="669" y="52"/>
      <point x="526" y="52" type="curve" smooth="yes"/>
      <point x="394" y="52"/>
      <point x="287" y="89"/>
      <point x="194" y="124" type="curve"/>
      <point x="153" y="-95" type="line"/>
      <point x="267" y="-144"/>
      <point x="414" y="-183"/>
    </contour>
  </outline>
</glyph>
<glyph name="eight" format="1">
  <advance width="1249"/>
  <unicode hex="0038"/>
  <outline>
    <contour>
      <point x="623" y="-140" type="curve" smooth="yes"/>
      <point x="885" y="-140"/>
      <point x="1100" y="-14"/>
      <point x="1100" y="245" type="curve" smooth="yes"/>
      <point x="1100" y="412"/>
      <point x="976" y="537"/>
      <point x="830" y="563" type="curve"/>
      <point x="974" y="595"/>
      <point x="1071" y="715"/>
      <point x="1071" y="870" type="curve" smooth="yes"/>
      <point x="1071" y="1095"/>
      <point x="891" y="1232"/>
      <point x="623" y="1232" type="curve" smooth="yes"/>
      <point x="355" y="1232"/>
      <point x="173" y="1097"/>
      <point x="173" y="870" type="curve" smooth="yes"/>
      <point x="173" y="715"/>
      <point x="271" y="595"/>
      <point x="413" y="564" type="curve"/>
      <point x="269" y="537"/>
      <point x="144" y="413"/>
      <point x="144" y="246" type="curve" smooth="yes"/>
      <point x="144" y="-15"/>
      <point x="359" y="-140"/>
    </contour>
    <contour>
      <point x="623" y="89" type="curve" smooth="yes"/>
      <point x="494" y="89"/>
      <point x="424" y="148"/>
      <point x="424" y="257" type="curve" smooth="yes"/>
      <point x="424" y="390"/>
      <point x="496" y="474"/>
      <point x="623" y="474" type="curve" smooth="yes"/>
      <point x="749" y="474"/>
      <point x="819" y="390"/>
      <point x="819" y="257" type="curve" smooth="yes"/>
      <point x="819" y="148"/>
      <point x="751" y="89"/>
    </contour>
    <contour>
      <point x="623" y="684" type="curve" smooth="yes"/>
      <point x="507" y="684"/>
      <point x="446" y="742"/>
      <point x="446" y="859" type="curve" smooth="yes"/>
      <point x="446" y="952"/>
      <point x="500" y="1013"/>
      <point x="623" y="1013" type="curve" smooth="yes"/>
      <point x="742" y="1013"/>
      <point x="798" y="953"/>
      <point x="798" y="860" type="curve" smooth="yes"/>
      <point x="798" y="743"/>
      <point x="740" y="684"/>
    </contour>
  </outline>
</glyph>
<glyph name="nine" format="1">
  <advance width="1214"/>
  <unicode hex="0039"/>
  <outline>
    <contour>
      <point x="383" y="-314" type="line"/>
      <point x="808" y="-206"/>
      <point x="1110" y="83"/>
      <point x="1110" y="565" type="curve" smooth="yes"/>
      <point x="1110" y="825"/>
      <point x="998" y="1116"/>
      <point x="602" y="1116" type="curve" smooth="yes"/>
      <point x="310" y="1116"/>
      <point x="126" y="929"/>
      <point x="126" y="657" type="curve" smooth="yes"/>
      <point x="126" y="407"/>
      <point x="283" y="207"/>
      <point x="557" y="207" type="curve" smooth="yes"/>
      <point x="663" y="207"/>
      <point x="757" y="237"/>
      <point x="806" y="290" type="curve"/>
      <point x="742" y="102"/>
      <point x="540" y="-39"/>
      <point x="311" y="-86" type="curve"/>
    </contour>
    <contour>
      <point x="485" y="530" type="curve" smooth="yes"/>
      <point x="414" y="590"/>
      <point x="412" y="699"/>
      <point x="488" y="769" type="curve" smooth="yes"/>
      <point x="578" y="843"/>
      <point x="648" y="834"/>
      <point x="725" y="768" type="curve" smooth="yes"/>
      <point x="820" y="747"/>
      <point x="845" y="649"/>
      <point x="839" y="548" type="curve"/>
      <point x="806" y="510"/>
      <point x="760" y="483"/>
      <point x="720" y="468" type="curve" smooth="yes"/>
      <point x="627" y="437"/>
      <point x="523" y="474"/>
    </contour>
  </outline>
</glyph>
<glyph name="colon" format="1">
  <advance width="746"/>
  <unicode hex="003A"/>
  <outline>
    <contour>
      <point x="196" y="0" type="line"/>
      <point x="549" y="0" type="line"/>
      <point x="549" y="382" type="line"/>
      <point x="196" y="382" type="line"/>
    </contour>
    <contour>
      <point x="196" y="669" type="line"/>
      <point x="549" y="669" type="line"/>
      <point x="549" y="1049" type="line"/>
      <point x="196" y="1049" type="line"/>
    </contour>
  </outline>
</glyph>
<glyph name="less" format="1">
  <advance width="1418"/>
  <unicode hex="003C"/>
  <outline>
    <contour>
      <point x="1129" y="99" type="line"/>
      <point x="1252" y="290" type="line"/>
      <point x="591" y="710" type="line"/>
      <point x="1252" y="1130" type="line"/>
      <point x="1129" y="1322" type="line"/>
      <point x="141" y="710" type="line"/>
    </contour>
  </outline>
</glyph>
<glyph name="greater" format="1">
  <advance width="1420"/>
  <unicode hex="003E"/>
  <outline>
    <contour>
      <point x="311" y="99" type="line"/>
      <point x="1300" y="710" type="line"/>
      <point x="311" y="1322" type="line"/>
      <point x="188" y="1130" type="line"/>
      <point x="850" y="710" type="line"/>
      <point x="188" y="290" type="line"/>
    </contour>
  </outline>
</glyph>
<glyph name="question" format="1">
  <advance width="1052"/>
  <unicode hex="003F"/>
  <outline>
    <contour>
      <point x="223" y="488" type="line"/>
      <point x="471" y="488" type="line"/>
      <point x="471" y="648" type="line"/>
      <point x="775" y="727"/>
      <point x="962" y="844"/>
      <point x="962" y="1110" type="curve" smooth="yes"/>
      <point x="962" y="1391"/>
      <point x="725" y="1502"/>
      <point x="463" y="1502" type="curve" smooth="yes"/>
      <point x="314" y="1502"/>
      <point x="157" y="1466"/>
      <point x="32" y="1406" type="curve"/>
      <point x="101" y="1189" type="line"/>
      <point x="184" y="1228"/>
      <point x="316" y="1263"/>
      <point x="432" y="1263" type="curve" smooth="yes"/>
      <point x="562" y="1263"/>
      <point x="667" y="1217"/>
      <point x="667" y="1096" type="curve" smooth="yes"/>
      <point x="667" y="916"/>
      <point x="421" y="841"/>
      <point x="223" y="790" type="curve"/>
    </contour>
    <contour>
      <point x="341" y="-19" type="curve" smooth="yes"/>
      <point x="440" y="-19"/>
      <point x="518" y="55"/>
      <point x="518" y="155" type="curve" smooth="yes"/>
      <point x="518" y="256"/>
      <point x="442" y="328"/>
      <point x="343" y="328" type="curve" smooth="yes"/>
      <point x="240" y="328"/>
      <point x="168" y="254"/>
      <point x="168" y="157" type="curve" smooth="yes"/>
      <point x="168" y="55"/>
      <point x="241" y="-19"/>
    </contour>
  </outline>
</glyph>
<glyph name="at" format="1">
  <advance width="1878"/>
  <unicode hex="0040"/>
  <outline>
    <contour>
      <point x="938" y="-136" type="curve" smooth="yes"/>
      <point x="1102" y="-136"/>
      <point x="1289" y="-103"/>
      <point x="1411" y="-52" type="curve"/>
      <point x="1361" y="95" type="line"/>
      <point x="1249" y="41"/>
      <point x="1085" y="8"/>
      <point x="938" y="8" type="curve" smooth="yes"/>
      <point x="517" y="8"/>
      <point x="276" y="257"/>
      <point x="280" y="671" type="curve" smooth="yes"/>
      <point x="283" y="1106"/>
      <point x="577" y="1380"/>
      <point x="1007" y="1380" type="curve" smooth="yes"/>
      <point x="1398" y="1380"/>
      <point x="1642" y="1158"/>
      <point x="1642" y="802" type="curve" smooth="yes"/>
      <point x="1642" y="531"/>
      <point x="1556" y="368"/>
      <point x="1433" y="368" type="curve" smooth="yes"/>
      <point x="1405" y="368"/>
      <point x="1388" y="389"/>
      <point x="1390" y="428" type="curve" smooth="yes"/>
      <point x="1390" y="431"/>
      <point x="1440" y="992"/>
      <point x="1441" y="1016" type="curve" smooth="yes"/>
      <point x="1444" y="1123"/>
      <point x="1306" y="1187"/>
      <point x="1093" y="1187" type="curve" smooth="yes"/>
      <point x="724" y="1187"/>
      <point x="471" y="963"/>
      <point x="471" y="606" type="curve" smooth="yes"/>
      <point x="471" y="376"/>
      <point x="595" y="226"/>
      <point x="818" y="226" type="curve" smooth="yes"/>
      <point x="1037" y="226"/>
      <point x="1215" y="383"/>
      <point x="1283" y="634" type="curve"/>
      <point x="1261" y="636" type="line"/>
      <point x="1259" y="583"/>
      <point x="1247" y="480"/>
      <point x="1247" y="409" type="curve" smooth="yes"/>
      <point x="1247" y="306"/>
      <point x="1312" y="240"/>
      <point x="1414" y="240" type="curve" smooth="yes"/>
      <point x="1656" y="240"/>
      <point x="1805" y="459"/>
      <point x="1805" y="802" type="curve" smooth="yes"/>
      <point x="1805" y="1243"/>
      <point x="1496" y="1523"/>
      <point x="1007" y="1523" type="curve" smooth="yes"/>
      <point x="465" y="1523"/>
      <point x="101" y="1186"/>
      <point x="101" y="660" type="curve" smooth="yes"/>
      <point x="101" y="166"/>
      <point x="416" y="-136"/>
    </contour>
    <contour>
      <point x="843" y="363" type="curve" smooth="yes"/>
      <point x="710" y="363"/>
      <point x="642" y="466"/>
      <point x="642" y="621" type="curve" smooth="yes"/>
      <point x="642" y="895"/>
      <point x="827" y="1063"/>
      <point x="1093" y="1065" type="curve" smooth="yes"/>
      <point x="1147" y="1065"/>
      <point x="1221" y="1051"/>
      <point x="1289" y="1028" type="curve"/>
      <point x="1244" y="617"/>
      <point x="1070" y="363"/>
    </contour>
  </outline>
</glyph>
<glyph name="A" format="1">
  <advance width="1407"/>
  <unicode hex="0041"/>
  <outline>
    <contour>
      <point x="705" y="1485" type="move" name="top"/>
    </contour>
    <contour>
      <point x="30" y="0" type="line"/>
      <point x="342" y="0" type="line"/>
      <point x="449" y="335" type="line"/>
      <point x="955" y="335" type="line"/>
      <point x="1062" y="0" type="line"/>
      <point x="1375" y="0" type="line"/>
      <point x="884" y="1485" type="line"/>
      <point x="520" y="1485" type="line"/>
    </contour>
    <contour>
      <point x="491" y="490" type="line"/>
      <point x="707" y="1167" type="line"/>
      <point x="913" y="490" type="line"/>
    </contour>
  </outline>
</glyph>
<glyph name="F" format="1">
  <advance width="1177"/>
  <unicode hex="0046"/>
  <outline>
    <contour>
      <point x="695" y="1485" type="move" name="top"/>
    </contour>
    <contour>
      <point x="172" y="0" type="line"/>
      <point x="491" y="0" type="line"/>
      <point x="491" y="635" type="line"/>
      <point x="1054" y="635" type="line"/>
      <point x="1054" y="831" type="line"/>
      <point x="491" y="831" type="line"/>
      <point x="491" y="1253" type="line"/>
      <point x="1104" y="1253" type="line"/>
      <point x="1104" y="1485" type="line"/>
      <point x="172" y="1485" type="line"/>
    </contour>
  </outline>
</glyph>
<glyph name="G" format="1">
  <advance width="1489"/>
  <unicode hex="0047"/>
  <outline>
    <contour>
      <point x="777" y="-1" type="move" name="bot"/>
    </contour>
    <contour>
      <point x="741" y="-20" type="curve" smooth="yes"/>
      <point x="919" y="-20"/>
      <point x="1072" y="55"/>
      <point x="1106" y="166" type="curve"/>
      <point x="1153" y="0" type="line"/>
      <point x="1337" y="0" type="line"/>
      <point x="1337" y="818" type="line"/>
      <point x="795" y="818" type="line"/>
      <point x="795" y="623" type="line"/>
      <point x="1071" y="623" type="line"/>
      <point x="1071" y="330" type="line"/>
      <point x="1028" y="245"/>
      <point x="912" y="209"/>
      <point x="803" y="209" type="curve" smooth="yes"/>
      <point x="542" y="209"/>
      <point x="432" y="395"/>
      <point x="432" y="727" type="curve" smooth="yes"/>
      <point x="432" y="1070"/>
      <point x="546" y="1275"/>
      <point x="829" y="1275" type="curve" smooth="yes"/>
      <point x="966" y="1275"/>
      <point x="1087" y="1231"/>
      <point x="1187" y="1171" type="curve"/>
      <point x="1276" y="1375" type="line"/>
      <point x="1138" y="1453"/>
      <point x="981" y="1505"/>
      <point x="813" y="1505" type="curve" smooth="yes"/>
      <point x="395" y="1505"/>
      <point x="111" y="1249"/>
      <point x="111" y="729" type="curve" smooth="yes"/>
      <point x="111" y="275"/>
      <point x="347" y="-20"/>
    </contour>
  </outline>
</glyph>
<glyph name="M" format="1">
  <advance width="1896"/>
  <unicode hex="004D"/>
  <outline>
    <contour>
      <point x="954" y="1485" type="move" name="top"/>
    </contour>
    <contour>
      <point x="172" y="0" type="line"/>
      <point x="439" y="0" type="line"/>
      <point x="439" y="1052" type="line"/>
      <point x="810" y="42" type="line"/>
      <point x="1090" y="42" type="line"/>
      <point x="1458" y="1052" type="line"/>
      <point x="1458" y="0" type="line"/>
      <point x="1725" y="0" type="line"/>
      <point x="1725" y="1485" type="line"/>
      <point x="1354" y="1485" type="line"/>
      <point x="943" y="398" type="line"/>
      <point x="541" y="1485" type="line"/>
      <point x="172" y="1485" type="line"/>
    </contour>
  </outline>
</glyph>
<glyph name="N" format="1">
  <advance width="1587"/>
  <unicode hex="004E"/>
  <outline>
    <contour>
      <point x="816" y="1485" type="move" name="top"/>
    </contour>
    <contour>
      <point x="832" y="0" type="move" name="bot"/>
    </contour>
    <contour>
      <point x="172" y="0" type="line"/>
      <point x="456" y="0" type="line"/>
      <point x="456" y="1066" type="line"/>
      <point x="1076" y="0" type="line"/>
      <point x="1415" y="0" type="line"/>
      <point x="1415" y="1485" type="line"/>
      <point x="1132" y="1485" type="line"/>
      <point x="1132" y="434" type="line"/>
      <point x="521" y="1485" type="line"/>
      <point x="172" y="1485" type="line"/>
    </contour>
  </outline>
</glyph>
<glyph name="O" format="1">
  <advance width="1548"/>
  <unicode hex="004F"/>
  <outline>
    <contour>
      <point x="784" y="1484" type="move" name="top"/>
    </contour>
    <contour>
      <point x="774" y="206" type="curve" smooth="yes"/>
      <point x="501" y="206"/>
      <point x="432" y="453"/>
      <point x="432" y="743" type="curve" smooth="yes"/>
      <point x="432" y="1033"/>
      <point x="501" y="1275"/>
      <point x="774" y="1275" type="curve" smooth="yes"/>
      <point x="1047" y="1275"/>
      <point x="1117" y="1034"/>
      <point x="1117" y="743" type="curve" smooth="yes"/>
      <point x="1117" y="458"/>
      <point x="1050" y="206"/>
    </contour>
    <contour>
      <point x="774" y="-20" type="curve" smooth="yes"/>
      <point x="1234" y="-20"/>
      <point x="1438" y="277"/>
      <point x="1438" y="743" type="curve" smooth="yes"/>
      <point x="1438" y="1217"/>
      <point x="1226" y="1505"/>
      <point x="774" y="1505" type="curve" smooth="yes"/>
      <point x="325" y="1505"/>
      <point x="111" y="1217"/>
      <point x="111" y="743" type="curve" smooth="yes"/>
      <point x="111" y="277"/>
      <point x="315" y="-20"/>
    </contour>
  </outline>
</glyph>
<glyph name="P" format="1">
  <advance width="1359"/>
  <unicode hex="0050"/>
  <outline>
    <contour>
      <point x="628" y="1485" type="move" name="top"/>
    </contour>
    <contour>
      <point x="172" y="0" type="line"/>
      <point x="491" y="0" type="line"/>
      <point x="491" y="604" type="line"/>
      <point x="535" y="604" type="line" smooth="yes"/>
      <point x="1007" y="604"/>
      <point x="1301" y="676"/>
      <point x="1301" y="1084" type="curve" smooth="yes"/>
      <point x="1301" y="1417"/>
      <point x="1066" y="1485"/>
      <point x="610" y="1485" type="curve" smooth="yes"/>
      <point x="172" y="1485" type="line"/>
    </contour>
    <contour>
      <point x="491" y="815" type="line"/>
      <point x="491" y="1287" type="line"/>
      <point x="605" y="1287" type="line" smooth="yes"/>
      <point x="860" y="1287"/>
      <point x="984" y="1260"/>
      <point x="984" y="1054" type="curve" smooth="yes"/>
      <point x="984" y="848"/>
      <point x="814" y="815"/>
      <point x="579" y="815" type="curve" smooth="yes"/>
    </contour>
  </outline>
</glyph>
<glyph name="R" format="1">
  <advance width="1470"/>
  <unicode hex="0052"/>
  <outline>
    <contour>
      <point x="672" y="1485" type="move" name="top"/>
    </contour>
    <contour>
      <point x="739" y="0" type="move" name="bot"/>
    </contour>
    <contour>
      <point x="172" y="0" type="line"/>
      <point x="491" y="0" type="line"/>
      <point x="491" y="650" type="line"/>
      <point x="692" y="650" type="line" smooth="yes"/>
      <point x="908" y="650"/>
      <point x="970" y="603"/>
      <point x="993" y="396" type="curve" smooth="yes"/>
      <point x="1038" y="0" type="line"/>
      <point x="1359" y="0" type="line"/>
      <point x="1306" y="458" type="line" smooth="yes"/>
      <point x="1285" y="649"/>
      <point x="1205" y="748"/>
      <point x="1036" y="770" type="curve"/>
      <point x="1213" y="793"/>
      <point x="1318" y="902"/>
      <point x="1318" y="1097" type="curve" smooth="yes"/>
      <point x="1318" y="1377"/>
      <point x="1169" y="1485"/>
      <point x="694" y="1485" type="curve" smooth="yes"/>
      <point x="172" y="1485" type="line"/>
    </contour>
    <contour>
      <point x="491" y="853" type="line"/>
      <point x="491" y="1287" type="line"/>
      <point x="654" y="1287" type="line" smooth="yes"/>
      <point x="878" y="1287"/>
      <point x="1003" y="1257"/>
      <point x="1003" y="1061" type="curve" smooth="yes"/>
      <point x="1003" y="888"/>
      <point x="849" y="853"/>
      <point x="669" y="853" type="curve" smooth="yes"/>
    </contour>
  </outline>
</glyph>
<glyph name="U" format="1">
  <advance width="1549"/>
  <unicode hex="0055"/>
  <outline>
    <contour>
      <point x="784" y="1485" type="move" name="top"/>
    </contour>
    <contour>
      <point x="772" y="-21" type="curve" smooth="yes"/>
      <point x="1253" y="-21"/>
      <point x="1396" y="207"/>
      <point x="1396" y="687" type="curve" smooth="yes"/>
      <point x="1396" y="1485" type="line"/>
      <point x="1077" y="1485" type="line"/>
      <point x="1077" y="674" type="line" smooth="yes"/>
      <point x="1077" y="356"/>
      <point x="1029" y="210"/>
      <point x="772" y="210" type="curve" smooth="yes"/>
      <point x="521" y="210"/>
      <point x="472" y="355"/>
      <point x="472" y="674" type="curve" smooth="yes"/>
      <point x="472" y="1485" type="line"/>
      <point x="153" y="1485" type="line"/>
      <point x="153" y="687" type="line" smooth="yes"/>
      <point x="153" y="207"/>
      <point x="297" y="-21"/>
    </contour>
  </outline>
</glyph>
<glyph name="X" format="1">
  <advance width="1346"/>
  <unicode hex="0058"/>
  <outline>
    <contour>
      <point x="32" y="0" type="line"/>
      <point x="354" y="0" type="line"/>
      <point x="667" y="508" type="line"/>
      <point x="979" y="0" type="line"/>
      <point x="1312" y="0" type="line"/>
      <point x="845" y="750" type="line"/>
      <point x="1307" y="1485" type="line"/>
      <point x="994" y="1485" type="line"/>
      <point x="680" y="978" type="line"/>
      <point x="367" y="1485" type="line"/>
      <point x="36" y="1485" type="line"/>
      <point x="493" y="754" type="line"/>
    </contour>
  </outline>
</glyph>
<glyph name="Y" format="1">
  <advance width="1281"/>
  <unicode hex="0059"/>
  <outline>
    <contour>
      <point x="654" y="1467" type="move" name="top"/>
    </contour>
    <contour>
      <point x="480" y="0" type="line"/>
      <point x="791" y="0" type="line"/>
      <point x="791" y="568" type="line"/>
      <point x="1270" y="1485" type="line"/>
      <point x="958" y="1485" type="line"/>
      <point x="641" y="873" type="line"/>
      <point x="329" y="1485" type="line"/>
      <point x="11" y="1485" type="line"/>
      <point x="480" y="568" type="line"/>
    </contour>
  </outline>
</glyph>
<glyph name="bracketleft" format="1">
  <advance width="954"/>
  <unicode hex="005B"/>
  <outline>
    <contour>
      <point x="168" y="-144" type="line"/>
      <point x="861" y="-144" type="line"/>
      <point x="861" y="27" type="line"/>
      <point x="458" y="27" type="line"/>
      <point x="458" y="1489" type="line"/>
      <point x="861" y="1489" type="line"/>
      <point x="861" y="1660" type="line"/>
      <point x="168" y="1660" type="line"/>
    </contour>
  </outline>
</glyph>
<glyph name="backslash" format="1">
  <advance width="1130"/>
  <unicode hex="005C"/>
  <outline>
    <contour>
      <point x="709" y="-143" type="line"/>
      <point x="984" y="-47" type="line"/>
      <point x="438" y="1598" type="line"/>
      <point x="162" y="1504" type="line"/>
    </contour>
  </outline>
</glyph>
<glyph name="bracketright" format="1">
  <advance width="954"/>
  <unicode hex="005D"/>
  <outline>
    <contour>
      <point x="93" y="-144" type="line"/>
      <point x="786" y="-144" type="line"/>
      <point x="786" y="1660" type="line"/>
      <point x="93" y="1660" type="line"/>
      <point x="93" y="1489" type="line"/>
      <point x="497" y="1489" type="line"/>
      <point x="497" y="27" type="line"/>
      <point x="93" y="27" type="line"/>
    </contour>
  </outline>
</glyph>
<glyph name="grave" format="1">
  <advance width="880"/>
  <unicode hex="0060"/>
  <outline>
    <contour>
      <point x="516" y="1098" type="move" name="_top"/>
    </contour>
    <contour>
      <point x="534" y="1279" type="line"/>
      <point x="625" y="1392" type="line"/>
      <point x="180" y="1796" type="line"/>
      <point x="14" y="1591" type="line"/>
    </contour>
  </outline>
</glyph>
<glyph name="e" format="1">
  <advance width="1167"/>
  <unicode hex="0065"/>
  <outline>
    <contour>
      <point x="639" y="1099" type="move" name="top"/>
    </contour>
    <contour>
      <point x="648" y="-3" type="move" name="bot"/>
    </contour>
    <contour>
      <point x="652" y="-20" type="curve" smooth="yes"/>
      <point x="785" y="-20"/>
      <point x="939" y="15"/>
      <point x="1052" y="93" type="curve"/>
      <point x="981" y="273" type="line"/>
      <point x="912" y="233"/>
      <point x="814" y="189"/>
      <point x="690" y="189" type="curve" smooth="yes"/>
      <point x="541" y="189"/>
      <point x="405" y="261"/>
      <point x="397" y="483" type="curve"/>
      <point x="1062" y="483" type="line"/>
      <point x="1070" y="576"/>
      <point x="1072" y="603"/>
      <point x="1072" y="630" type="curve" smooth="yes"/>
      <point x="1072" y="929"/>
      <point x="912" y="1116"/>
      <point x="634" y="1116" type="curve" smooth="yes"/>
      <point x="294" y="1116"/>
      <point x="91" y="881"/>
      <point x="91" y="542" type="curve" smooth="yes"/>
      <point x="91" y="205"/>
      <point x="287" y="-20"/>
    </contour>
    <contour>
      <point x="402" y="655" type="line"/>
      <point x="408" y="813"/>
      <point x="482" y="917"/>
      <point x="628" y="917" type="curve" smooth="yes"/>
      <point x="750" y="917"/>
      <point x="817" y="826"/>
      <point x="817" y="685" type="curve" smooth="yes"/>
      <point x="817" y="655" type="line"/>
    </contour>
  </outline>
</glyph>
<glyph name="f" format="1">
  <advance width="847"/>
  <unicode hex="0066"/>
  <outline>
    <contour>
      <point x="384" y="1489" type="move" name="top"/>
    </contour>
    <contour>
      <point x="602" y="1567" type="curve" smooth="yes"/>
      <point x="434" y="1569"/>
      <point x="227" y="1489"/>
      <point x="227" y="1143" type="curve" smooth="yes"/>
      <point x="227" y="1096" type="line"/>
      <point x="42" y="1096" type="line"/>
      <point x="42" y="927" type="line"/>
      <point x="227" y="927" type="line"/>
      <point x="227" y="0" type="line"/>
      <point x="529" y="0" type="line"/>
      <point x="529" y="927" type="line"/>
      <point x="838" y="927" type="line"/>
      <point x="838" y="1096" type="line"/>
      <point x="529" y="1096" type="line"/>
      <point x="529" y="1166" type="line" smooth="yes"/>
      <point x="529" y="1317"/>
      <point x="609" y="1345"/>
      <point x="684" y="1345" type="curve" smooth="yes"/>
      <point x="728" y="1346"/>
      <point x="784" y="1333"/>
      <point x="831" y="1317" type="curve"/>
      <point x="878" y="1503" type="line"/>
      <point x="810" y="1540"/>
      <point x="712" y="1566"/>
    </contour>
  </outline>
</glyph>
<glyph name="g" format="1">
  <advance width="1178"/>
  <unicode hex="0067"/>
  <outline>
    <contour>
      <point x="566" y="1099" type="move" name="top"/>
    </contour>
    <contour>
      <point x="509" y="-452" type="curve" smooth="yes"/>
      <point x="804" y="-452"/>
      <point x="1113" y="-396"/>
      <point x="1113" y="-119" type="curve" smooth="yes"/>
      <point x="1113" y="172"/>
      <point x="937" y="224"/>
      <point x="709" y="224" type="curve" smooth="yes"/>
      <point x="404" y="224" type="line"/>
      <point x="401" y="229"/>
      <point x="381" y="256"/>
      <point x="381" y="297" type="curve" smooth="yes"/>
      <point x="381" y="337"/>
      <point x="405" y="379"/>
      <point x="408" y="384" type="curve"/>
      <point x="420" y="382"/>
      <point x="480" y="364"/>
      <point x="571" y="364" type="curve" smooth="yes"/>
      <point x="847" y="364"/>
      <point x="1011" y="503"/>
      <point x="1011" y="747" type="curve" smooth="yes"/>
      <point x="1010" y="821"/>
      <point x="976" y="882"/>
      <point x="946" y="913" type="curve"/>
      <point x="1165" y="933" type="line"/>
      <point x="1165" y="1068"/>
      <point x="1155" y="1113"/>
      <point x="1152" y="1113" type="curve" smooth="yes"/>
      <point x="1029" y="1113"/>
      <point x="941" y="1102"/>
      <point x="829" y="1051" type="curve"/>
      <point x="757" y="1094"/>
      <point x="699" y="1116"/>
      <point x="560" y="1116" type="curve" smooth="yes"/>
      <point x="263" y="1116"/>
      <point x="107" y="962"/>
      <point x="107" y="740" type="curve" smooth="yes"/>
      <point x="107" y="568"/>
      <point x="202" y="493"/>
      <point x="270" y="455" type="curve"/>
      <point x="224" y="416"/>
      <point x="141" y="332"/>
      <point x="141" y="223" type="curve" smooth="yes"/>
      <point x="141" y="142"/>
      <point x="185" y="83"/>
      <point x="265" y="61" type="curve"/>
      <point x="172" y="30"/>
      <point x="99" y="-47"/>
      <point x="99" y="-164" type="curve" smooth="yes"/>
      <point x="99" y="-415"/>
      <point x="320" y="-452"/>
    </contour>
    <contour>
      <point x="540" y="-257" type="curve" smooth="yes"/>
      <point x="402" y="-257"/>
      <point x="349" y="-214"/>
      <point x="349" y="-121" type="curve" smooth="yes"/>
      <point x="349" y="-59"/>
      <point x="377" y="0"/>
      <point x="411" y="28" type="curve"/>
      <point x="659" y="28" type="line" smooth="yes"/>
      <point x="792" y="28"/>
      <point x="853" y="22"/>
      <point x="853" y="-96" type="curve" smooth="yes"/>
      <point x="853" y="-262"/>
      <point x="674" y="-257"/>
    </contour>
    <contour>
      <point x="578" y="554" type="curve" smooth="yes"/>
      <point x="430" y="554"/>
      <point x="368" y="629"/>
      <point x="368" y="752" type="curve" smooth="yes"/>
      <point x="368" y="871"/>
      <point x="439" y="933"/>
      <point x="582" y="933" type="curve" smooth="yes"/>
      <point x="714" y="933"/>
      <point x="774" y="865"/>
      <point x="774" y="741" type="curve" smooth="yes"/>
      <point x="774" y="640"/>
      <point x="712" y="554"/>
    </contour>
  </outline>
</glyph>
<glyph name="j" format="1">
  <advance width="677"/>
  <unicode hex="006A"/>
  <outline>
    <contour>
      <point x="104" y="-456" type="line"/>
      <point x="372" y="-391"/>
      <point x="521" y="-290"/>
      <point x="521" y="17" type="curve" smooth="yes"/>
      <point x="521" y="1096" type="line"/>
      <point x="218" y="1096" type="line"/>
      <point x="218" y="104" type="line" smooth="yes"/>
      <point x="218" y="-124"/>
      <point x="212" y="-161"/>
      <point x="8" y="-245" type="curve"/>
    </contour>
    <contour>
      <point x="370" y="1264" type="curve" smooth="yes"/>
      <point x="466" y="1264"/>
      <point x="541" y="1337"/>
      <point x="541" y="1433" type="curve" smooth="yes"/>
      <point x="541" y="1527"/>
      <point x="465" y="1604"/>
      <point x="370" y="1604" type="curve" smooth="yes"/>
      <point x="275" y="1604"/>
      <point x="201" y="1527"/>
      <point x="201" y="1433" type="curve" smooth="yes"/>
      <point x="201" y="1340"/>
      <point x="272" y="1264"/>
    </contour>
  </outline>
</glyph>
<glyph name="l" format="1">
  <advance width="614"/>
  <unicode hex="006C"/>
  <outline>
    <contour>
      <point x="301" y="1489" type="move" name="top"/>
    </contour>
    <contour>
      <point x="450" y="1102" type="move" name="caron.alt"/>
    </contour>
    <contour>
      <point x="159" y="0" type="line"/>
      <point x="462" y="0" type="line"/>
      <point x="462" y="1542" type="line"/>
      <point x="159" y="1489" type="line"/>
    </contour>
  </outline>
</glyph>
<glyph name="m" format="1">
  <advance width="1946"/>
  <unicode hex="006D"/>
  <outline>
    <contour>
      <point x="1063" y="1099" type="move" name="top"/>
    </contour>
    <contour>
      <point x="147" y="0" type="line"/>
      <point x="449" y="0" type="line"/>
      <point x="449" y="788" type="line"/>
      <point x="524" y="869"/>
      <point x="605" y="910"/>
      <point x="680" y="910" type="curve" smooth="yes"/>
      <point x="789" y="910"/>
      <point x="828" y="844"/>
      <point x="828" y="708" type="curve" smooth="yes"/>
      <point x="828" y="0" type="line"/>
      <point x="1132" y="0" type="line"/>
      <point x="1132" y="709" type="line" smooth="yes"/>
      <point x="1132" y="734"/>
      <point x="1131" y="765"/>
      <point x="1127" y="796" type="curve"/>
      <point x="1201" y="876"/>
      <point x="1277" y="910"/>
      <point x="1358" y="910" type="curve" smooth="yes"/>
      <point x="1467" y="910"/>
      <point x="1505" y="844"/>
      <point x="1505" y="708" type="curve" smooth="yes"/>
      <point x="1505" y="0" type="line"/>
      <point x="1808" y="0" type="line"/>
      <point x="1808" y="706" type="line" smooth="yes"/>
      <point x="1808" y="1008"/>
      <point x="1636" y="1116"/>
      <point x="1458" y="1116" type="curve" smooth="yes"/>
      <point x="1323" y="1116"/>
      <point x="1190" y="1060"/>
      <point x="1084" y="945" type="curve"/>
      <point x="1023" y="1062"/>
      <point x="909" y="1116"/>
      <point x="781" y="1116" type="curve" smooth="yes"/>
      <point x="648" y="1116"/>
      <point x="526" y="1059"/>
      <point x="416" y="949" type="curve"/>
      <point x="377" y="1096" type="line"/>
      <point x="147" y="1096" type="line"/>
    </contour>
  </outline>
</glyph>
<glyph name="p" format="1">
  <advance width="1270"/>
  <unicode hex="0070"/>
  <outline>
    <contour>
      <point x="699" y="1099" type="move" name="top"/>
    </contour>
    <contour>
      <point x="143" y="-473" type="line"/>
      <point x="448" y="-430" type="line"/>
      <point x="448" y="67" type="line"/>
      <point x="517" y="17"/>
      <point x="604" y="-20"/>
      <point x="712" y="-20" type="curve" smooth="yes"/>
      <point x="981" y="-20"/>
      <point x="1179" y="201"/>
      <point x="1179" y="552" type="curve" smooth="yes"/>
      <point x="1179" y="902"/>
      <point x="1014" y="1116"/>
      <point x="750" y="1116" type="curve" smooth="yes"/>
      <point x="611" y="1116"/>
      <point x="493" y="1069"/>
      <point x="397" y="983" type="curve"/>
      <point x="357" y="1096" type="line"/>
      <point x="143" y="1096" type="line"/>
    </contour>
    <contour>
      <point x="637" y="173" type="curve" smooth="yes"/>
      <point x="559" y="173"/>
      <point x="499" y="201"/>
      <point x="448" y="247" type="curve"/>
      <point x="448" y="843" type="line"/>
      <point x="513" y="892"/>
      <point x="583" y="918"/>
      <point x="658" y="918" type="curve" smooth="yes"/>
      <point x="797" y="917"/>
      <point x="878" y="810"/>
      <point x="878" y="551" type="curve" smooth="yes"/>
      <point x="878" y="294"/>
      <point x="780" y="173"/>
    </contour>
  </outline>
</glyph>
<glyph name="r" format="1">
  <advance width="850"/>
  <unicode hex="0072"/>
  <outline>
    <contour>
      <point x="471" y="1097" type="move" name="top"/>
    </contour>
    <contour>
      <point x="457" y="0" type="move" name="bot"/>
    </contour>
    <contour>
      <point x="152" y="0" type="line"/>
      <point x="453" y="0" type="line"/>
      <point x="453" y="748" type="line"/>
      <point x="553" y="807"/>
      <point x="681" y="855"/>
      <point x="811" y="860" type="curve"/>
      <point x="781" y="1107" type="line"/>
      <point x="661" y="1107"/>
      <point x="528" y="1035"/>
      <point x="428" y="924" type="curve"/>
      <point x="381" y="1096" type="line"/>
      <point x="152" y="1096" type="line"/>
    </contour>
  </outline>
</glyph>
<glyph name="s" format="1">
  <advance width="1024"/>
  <unicode hex="0073"/>
  <outline>
    <contour>
      <point x="505" y="1098" type="move" name="top"/>
    </contour>
    <contour>
      <point x="532" y="-1" type="move" name="bot"/>
    </contour>
    <contour>
      <point x="654" y="301" type="curve" smooth="yes"/>
      <point x="652" y="219"/>
      <point x="585" y="187"/>
      <point x="493" y="187" type="curve" smooth="yes"/>
      <point x="390" y="187"/>
      <point x="267" y="235"/>
      <point x="173" y="294" type="curve"/>
      <point x="104" y="99" type="line"/>
      <point x="197" y="40"/>
      <point x="342" y="-20"/>
      <point x="529" y="-20" type="curve" smooth="yes"/>
      <point x="768" y="-20"/>
      <point x="943" y="83"/>
      <point x="943" y="330" type="curve" smooth="yes"/>
      <point x="944" y="474"/>
      <point x="875" y="558"/>
      <point x="662" y="637" type="curve" smooth="yes"/>
      <point x="474" y="705" type="line" smooth="yes"/>
      <point x="404" y="729"/>
      <point x="387" y="758"/>
      <point x="387" y="803" type="curve" smooth="yes"/>
      <point x="388" y="886"/>
      <point x="463" y="904"/>
      <point x="549" y="904" type="curve" smooth="yes"/>
      <point x="641" y="904"/>
      <point x="740" y="878"/>
      <point x="841" y="826" type="curve"/>
      <point x="915" y="1007" type="line"/>
      <point x="844" y="1056"/>
      <point x="706" y="1116"/>
      <point x="526" y="1116" type="curve" smooth="yes"/>
      <point x="259" y="1116"/>
      <point x="96" y="987"/>
      <point x="96" y="799" type="curve" smooth="yes"/>
      <point x="96" y="648"/>
      <point x="171" y="557"/>
      <point x="345" y="493" type="curve" smooth="yes"/>
      <point x="562" y="414" type="line" smooth="yes"/>
      <point x="634" y="391"/>
      <point x="656" y="361"/>
    </contour>
  </outline>
</glyph>
<glyph name="u" format="1">
  <advance width="1305"/>
  <unicode hex="0075"/>
  <outline>
    <contour>
      <point x="647" y="1096" type="move" name="top"/>
    </contour>
    <contour>
      <point x="528" y="-20" type="curve" smooth="yes"/>
      <point x="724" y="-20"/>
      <point x="827" y="66"/>
      <point x="893" y="133" type="curve"/>
      <point x="928" y="0" type="line"/>
      <point x="1158" y="0" type="line"/>
      <point x="1158" y="1096" type="line"/>
      <point x="854" y="1096" type="line"/>
      <point x="854" y="296" type="line"/>
      <point x="801" y="236"/>
      <point x="730" y="176"/>
      <point x="607" y="176" type="curve" smooth="yes"/>
      <point x="497" y="176"/>
      <point x="442" y="250"/>
      <point x="442" y="375" type="curve" smooth="yes"/>
      <point x="442" y="1096" type="line"/>
      <point x="138" y="1096" type="line"/>
      <point x="138" y="415" type="line" smooth="yes"/>
      <point x="138" y="96"/>
      <point x="295" y="-20"/>
    </contour>
  </outline>
</glyph>
<glyph name="w" format="1">
  <advance width="1602"/>
  <unicode hex="0077"/>
  <outline>
    <contour>
      <point x="808" y="1096" type="move" name="top"/>
    </contour>
    <contour>
      <point x="989" y="0" type="line"/>
      <point x="1286" y="0" type="line"/>
      <point x="1552" y="1096" type="line"/>
      <point x="1280" y="1096" type="line"/>
      <point x="1116" y="302" type="line"/>
      <point x="925" y="1096" type="line"/>
      <point x="688" y="1096" type="line"/>
      <point x="489" y="309" type="line"/>
      <point x="326" y="1096" type="line"/>
      <point x="50" y="1096" type="line"/>
      <point x="317" y="0" type="line"/>
      <point x="611" y="0" type="line"/>
      <point x="803" y="716" type="line"/>
    </contour>
  </outline>
</glyph>
<glyph name="braceleft" format="1">
  <advance width="944"/>
  <unicode hex="007B"/>
  <outline>
    <contour>
      <point x="839" y="-213" type="curve"/>
      <point x="839" y="-16" type="line"/>
      <point x="661" y="-4"/>
      <point x="616" y="22"/>
      <point x="614" y="243" type="curve" smooth="yes"/>
      <point x="611" y="573"/>
      <point x="527" y="645"/>
      <point x="377" y="677" type="curve"/>
      <point x="527" y="708"/>
      <point x="611" y="781"/>
      <point x="614" y="1111" type="curve" smooth="yes"/>
      <point x="616" y="1331"/>
      <point x="662" y="1358"/>
      <point x="839" y="1371" type="curve"/>
      <point x="839" y="1568" type="line"/>
      <point x="432" y="1568"/>
      <point x="282" y="1491"/>
      <point x="282" y="1085" type="curve" smooth="yes"/>
      <point x="282" y="837"/>
      <point x="263" y="789"/>
      <point x="78" y="767" type="curve"/>
      <point x="78" y="586" type="line"/>
      <point x="262" y="566"/>
      <point x="282" y="517"/>
      <point x="282" y="270" type="curve" smooth="yes"/>
      <point x="282" y="-137"/>
      <point x="432" y="-213"/>
    </contour>
  </outline>
</glyph>
<glyph name="asciitilde" format="1">
  <advance width="1125"/>
  <unicode hex="007E"/>
  <outline>
    <contour>
      <point x="156" y="570" type="curve"/>
      <point x="260" y="570" type="line"/>
      <point x="260" y="654"/>
      <point x="290" y="682"/>
      <point x="338" y="682" type="curve" smooth="yes"/>
      <point x="439" y="682"/>
      <point x="624" y="560"/>
      <point x="811" y="560" type="curve" smooth="yes"/>
      <point x="944" y="560"/>
      <point x="1012" y="682"/>
      <point x="1012" y="866" type="curve"/>
      <point x="906" y="866" type="line"/>
      <point x="906" y="792"/>
      <point x="878" y="768"/>
      <point x="831" y="768" type="curve" smooth="yes"/>
      <point x="731" y="768"/>
      <point x="542" y="884"/>
      <point x="360" y="887" type="curve" smooth="yes"/>
      <point x="217" y="887"/>
      <point x="156" y="769"/>
    </contour>
  </outline>
</glyph>
<glyph name="cent" format="1">
  <advance width="1043"/>
  <unicode hex="00A2"/>
  <outline>
    <contour>
      <point x="571" y="-194" type="line"/>
      <point x="685" y="-194" type="line"/>
      <point x="685" y="1358" type="line"/>
      <point x="571" y="1358" type="line"/>
    </contour>
    <component base="c" yScale="0.942" yOffset="62"/>
  </outline>
</glyph>
<glyph name="currency" format="1">
  <advance width="1292"/>
  <unicode hex="00A4"/>
  <outline>
    <contour>
      <point x="244" y="389" type="line"/>
      <point x="428" y="573" type="line"/>
      <point x="492" y="533"/>
      <point x="563" y="513"/>
      <point x="638" y="513" type="curve" smooth="yes"/>
      <point x="723" y="513"/>
      <point x="801" y="537"/>
      <point x="873" y="586" type="curve"/>
      <point x="1070" y="389" type="line"/>
      <point x="1189" y="510" type="line"/>
      <point x="993" y="706" type="line"/>
      <point x="1043" y="778"/>
      <point x="1068" y="858"/>
      <point x="1068" y="943" type="curve" smooth="yes"/>
      <point x="1068" y="1019"/>
      <point x="1048" y="1089"/>
      <point x="1007" y="1153" type="curve"/>
      <point x="1189" y="1335" type="line"/>
      <point x="1070" y="1455" type="line"/>
      <point x="890" y="1275" type="line"/>
      <point x="823" y="1319"/>
      <point x="749" y="1341"/>
      <point x="669" y="1341" type="curve" smooth="yes"/>
      <point x="584" y="1341"/>
      <point x="505" y="1316"/>
      <point x="433" y="1267" type="curve"/>
      <point x="244" y="1455" type="line"/>
      <point x="125" y="1335" type="line"/>
      <point x="313" y="1146" type="line"/>
      <point x="265" y="1074"/>
      <point x="240" y="997"/>
      <point x="240" y="912" type="curve" smooth="yes"/>
      <point x="240" y="832"/>
      <point x="262" y="758"/>
      <point x="305" y="692" type="curve"/>
      <point x="125" y="510" type="line"/>
    </contour>
    <contour>
      <point x="652" y="672" type="curve" smooth="yes"/>
      <point x="493" y="672"/>
      <point x="408" y="792"/>
      <point x="408" y="918" type="curve" smooth="yes"/>
      <point x="408" y="1050"/>
      <point x="501" y="1180"/>
      <point x="663" y="1180" type="curve" smooth="yes"/>
      <point x="816" y="1180"/>
      <point x="899" y="1060"/>
      <point x="899" y="935" type="curve" smooth="yes"/>
      <point x="899" y="804"/>
      <point x="809" y="672"/>
    </contour>
  </outline>
</glyph>
<glyph name="brokenbar" format="1">
  <advance width="767"/>
  <unicode hex="00A6"/>
  <outline>
    <contour>
      <point x="247" y="-119" type="line"/>
      <point x="519" y="-119" type="line"/>
      <point x="519" y="576" type="line"/>
      <point x="247" y="576" type="line"/>
    </contour>
    <contour>
      <point x="247" y="864" type="line"/>
      <point x="519" y="864" type="line"/>
      <point x="519" y="1559" type="line"/>
      <point x="247" y="1559" type="line"/>
    </contour>
  </outline>
</glyph>
<glyph name="section" format="1">
  <advance width="1100"/>
  <unicode hex="00A7"/>
  <outline>
    <contour>
      <point x="537" y="-102" type="curve" smooth="yes"/>
      <point x="731" y="-102"/>
      <point x="950" y="-24"/>
      <point x="950" y="212" type="curve" smooth="yes"/>
      <point x="950" y="320"/>
      <point x="901" y="423"/>
      <point x="764" y="479" type="curve"/>
      <point x="877" y="508"/>
      <point x="948" y="595"/>
      <point x="948" y="701" type="curve" smooth="yes"/>
      <point x="948" y="847"/>
      <point x="872" y="929"/>
      <point x="643" y="1014" type="curve" smooth="yes"/>
      <point x="507" y="1064" type="line" smooth="yes"/>
      <point x="417" y="1097"/>
      <point x="376" y="1126"/>
      <point x="376" y="1175" type="curve" smooth="yes"/>
      <point x="376" y="1256"/>
      <point x="450" y="1286"/>
      <point x="556" y="1286" type="curve" smooth="yes"/>
      <point x="655" y="1286"/>
      <point x="767" y="1252"/>
      <point x="841" y="1207" type="curve"/>
      <point x="911" y="1384" type="line"/>
      <point x="807" y="1452"/>
      <point x="642" y="1495"/>
      <point x="518" y="1495" type="curve" smooth="yes"/>
      <point x="319" y="1495"/>
      <point x="126" y="1408"/>
      <point x="126" y="1203" type="curve" smooth="yes"/>
      <point x="126" y="1076"/>
      <point x="193" y="996"/>
      <point x="316" y="946" type="curve"/>
      <point x="184" y="914"/>
      <point x="126" y="809"/>
      <point x="126" y="725" type="curve" smooth="yes"/>
      <point x="126" y="563"/>
      <point x="192" y="490"/>
      <point x="422" y="414" type="curve" smooth="yes"/>
      <point x="560" y="368" type="line"/>
      <point x="667" y="335"/>
      <point x="712" y="307"/>
      <point x="712" y="231" type="curve" smooth="yes"/>
      <point x="712" y="147"/>
      <point x="640" y="97"/>
      <point x="521" y="97" type="curve" smooth="yes"/>
      <point x="402" y="97"/>
      <point x="277" y="142"/>
      <point x="200" y="199" type="curve"/>
      <point x="127" y="23" type="line"/>
      <point x="228" y="-64"/>
      <point x="441" y="-102"/>
    </contour>
    <contour>
      <point x="533" y="603" type="curve" smooth="yes"/>
      <point x="422" y="603"/>
      <point x="350" y="623"/>
      <point x="350" y="707" type="curve" smooth="yes"/>
      <point x="350" y="794"/>
      <point x="422" y="812"/>
      <point x="533" y="812" type="curve" smooth="yes"/>
      <point x="646" y="812"/>
      <point x="719" y="795"/>
      <point x="719" y="707" type="curve" smooth="yes"/>
      <point x="719" y="624"/>
      <point x="643" y="603"/>
    </contour>
  </outline>
</glyph>
<glyph name="dieresis" format="1">
  <advance width="1177"/>
  <unicode hex="00A8"/>
  <outline>
    <contour>
      <point x="595" y="1098" type="move" name="_top"/>
    </contour>
    <contour>
      <point x="340" y="1233" type="curve" smooth="yes"/>
      <point x="421" y="1233"/>
      <point x="486" y="1297"/>
      <point x="486" y="1379" type="curve" smooth="yes"/>
      <point x="486" y="1461"/>
      <point x="421" y="1526"/>
      <point x="340" y="1526" type="curve" smooth="yes"/>
      <point x="258" y="1526"/>
      <point x="195" y="1461"/>
      <point x="195" y="1379" type="curve" smooth="yes"/>
      <point x="195" y="1299"/>
      <point x="256" y="1233"/>
    </contour>
    <contour>
      <point x="829" y="1233" type="curve" smooth="yes"/>
      <point x="911" y="1233"/>
      <point x="975" y="1297"/>
      <point x="975" y="1379" type="curve" smooth="yes"/>
      <point x="975" y="1461"/>
      <point x="910" y="1526"/>
      <point x="829" y="1526" type="curve" smooth="yes"/>
      <point x="748" y="1526"/>
      <point x="685" y="1461"/>
      <point x="685" y="1379" type="curve" smooth="yes"/>
      <point x="685" y="1299"/>
      <point x="745" y="1233"/>
    </contour>
  </outline>
</glyph>
<glyph name="copyright" format="1">
  <advance width="1824"/>
  <unicode hex="00A9"/>
  <outline>
    <contour>
      <point x="908" y="1237" type="curve" smooth="yes"/>
      <point x="618" y="1234"/>
      <point x="436" y="1044"/>
      <point x="436" y="762" type="curve" smooth="yes"/>
      <point x="436" y="476"/>
      <point x="620" y="287"/>
      <point x="914" y="287" type="curve" smooth="yes"/>
      <point x="1048" y="287"/>
      <point x="1198" y="342"/>
      <point x="1272" y="418" type="curve"/>
      <point x="1204" y="522" type="line"/>
      <point x="1135" y="447"/>
      <point x="1024" y="403"/>
      <point x="919" y="403" type="curve" smooth="yes"/>
      <point x="720" y="403"/>
      <point x="597" y="536"/>
      <point x="597" y="762" type="curve" smooth="yes"/>
      <point x="597" y="987"/>
      <point x="717" y="1118"/>
      <point x="912" y="1120" type="curve" smooth="yes"/>
      <point x="1020" y="1122"/>
      <point x="1129" y="1081"/>
      <point x="1195" y="1009" type="curve"/>
      <point x="1276" y="1103" type="line"/>
      <point x="1203" y="1182"/>
      <point x="1050" y="1238"/>
    </contour>
    <contour>
      <point x="913" y="115" type="curve" smooth="yes"/>
      <point x="517" y="115"/>
      <point x="271" y="354"/>
      <point x="271" y="750" type="curve" smooth="yes"/>
      <point x="271" y="1147"/>
      <point x="517" y="1386"/>
      <point x="913" y="1386" type="curve" smooth="yes"/>
      <point x="1308" y="1386"/>
      <point x="1553" y="1147"/>
      <point x="1553" y="750" type="curve" smooth="yes"/>
      <point x="1553" y="354"/>
      <point x="1308" y="115"/>
    </contour>
    <contour>
      <point x="913" y="-15" type="curve" smooth="yes"/>
      <point x="1404" y="-15"/>
      <point x="1718" y="287"/>
      <point x="1718" y="750" type="curve" smooth="yes"/>
      <point x="1718" y="1214"/>
      <point x="1404" y="1517"/>
      <point x="913" y="1517" type="curve" smooth="yes"/>
      <point x="421" y="1517"/>
      <point x="108" y="1214"/>
      <point x="108" y="750" type="curve" smooth="yes"/>
      <point x="108" y="287"/>
      <point x="421" y="-15"/>
    </contour>
  </outline>
</glyph>
<glyph name="guillemotleft" format="1">
  <advance width="1508"/>
  <unicode hex="00AB"/>
  <outline>
    <contour>
      <point x="744" y="52" type="line"/>
      <point x="744" y="313" type="line"/>
      <point x="422" y="559" type="line"/>
      <point x="745" y="804" type="line"/>
      <point x="745" y="1063" type="line"/>
      <point x="160" y="658" type="line"/>
      <point x="160" y="459" type="line"/>
    </contour>
    <contour>
      <point x="1352" y="52" type="line"/>
      <point x="1352" y="313" type="line"/>
      <point x="1029" y="559" type="line"/>
      <point x="1352" y="804" type="line"/>
      <point x="1352" y="1063" type="line"/>
      <point x="767" y="658" type="line"/>
      <point x="767" y="459" type="line"/>
    </contour>
  </outline>
</glyph>
<glyph name="logicalnot" format="1">
  <advance width="1232"/>
  <unicode hex="00AC"/>
  <outline>
    <contour>
      <point x="897" y="366" type="line"/>
      <point x="1085" y="366" type="line"/>
      <point x="1085" y="1038" type="line"/>
      <point x="126" y="1038" type="line"/>
      <point x="126" y="809" type="line"/>
      <point x="897" y="809" type="line"/>
    </contour>
  </outline>
</glyph>
<glyph name="degree" format="1">
  <advance width="834"/>
  <unicode hex="00B0"/>
  <outline>
    <contour>
      <point x="405" y="780" type="curve" smooth="yes"/>
      <point x="315" y="780"/>
      <point x="241" y="850"/>
      <point x="241" y="940" type="curve" smooth="yes"/>
      <point x="241" y="1032"/>
      <point x="315" y="1103"/>
      <point x="405" y="1103" type="curve" smooth="yes"/>
      <point x="493" y="1103"/>
      <point x="568" y="1034"/>
      <point x="568" y="940" type="curve" smooth="yes"/>
      <point x="568" y="850"/>
      <point x="494" y="780"/>
    </contour>
    <contour>
      <point x="397" y="638" type="curve" smooth="yes"/>
      <point x="569" y="638"/>
      <point x="728" y="758"/>
      <point x="728" y="938" type="curve" smooth="yes"/>
      <point x="728" y="1115"/>
      <point x="580" y="1245"/>
      <point x="406" y="1245" type="curve" smooth="yes"/>
      <point x="237" y="1245"/>
      <point x="81" y="1119"/>
      <point x="81" y="945" type="curve" smooth="yes"/>
      <point x="81" y="773"/>
      <point x="226" y="638"/>
    </contour>
  </outline>
</glyph>
<glyph name="plusminus" format="1">
  <advance width="1092"/>
  <unicode hex="00B1"/>
  <outline>
    <contour>
      <point x="423" y="353" type="line"/>
      <point x="670" y="353" type="line"/>
      <point x="670" y="685" type="line"/>
      <point x="984" y="685" type="line"/>
      <point x="984" y="900" type="line"/>
      <point x="670" y="900" type="line"/>
      <point x="670" y="1230" type="line"/>
      <point x="423" y="1230" type="line"/>
      <point x="423" y="900" type="line"/>
      <point x="110" y="900" type="line"/>
      <point x="110" y="685" type="line"/>
      <point x="423" y="685" type="line"/>
    </contour>
    <contour>
      <point x="158" y="-21" type="line"/>
      <point x="936" y="-21" type="line"/>
      <point x="936" y="192" type="line"/>
      <point x="158" y="192" type="line"/>
    </contour>
  </outline>
</glyph>
<glyph name="paragraph" format="1">
  <advance width="1305"/>
  <unicode hex="00B6"/>
  <outline>
    <contour>
      <point x="559" y="-144" type="line"/>
      <point x="786" y="-144" type="line"/>
      <point x="786" y="1297" type="line"/>
      <point x="950" y="1297" type="line"/>
      <point x="950" y="-144" type="line"/>
      <point x="1174" y="-144" type="line"/>
      <point x="1174" y="1488" type="line"/>
      <point x="601" y="1488" type="line" smooth="yes"/>
      <point x="373" y="1488"/>
      <point x="100" y="1441"/>
      <point x="100" y="1105" type="curve" smooth="yes"/>
      <point x="100" y="790"/>
      <point x="312" y="702"/>
      <point x="559" y="702" type="curve"/>
    </contour>
  </outline>
</glyph>
<glyph name="periodcentered" format="1">
  <advance width="716"/>
  <unicode hex="00B7"/>
  <outline>
    <contour>
      <point x="471" y="580" type="curve" smooth="yes"/>
      <point x="566" y="580"/>
      <point x="642" y="654"/>
      <point x="642" y="749" type="curve" smooth="yes"/>
      <point x="642" y="845"/>
      <point x="565" y="919"/>
      <point x="471" y="919" type="curve" smooth="yes"/>
      <point x="376" y="919"/>
      <point x="302" y="845"/>
      <point x="302" y="749" type="curve" smooth="yes"/>
      <point x="302" y="657"/>
      <point x="373" y="580"/>
    </contour>
  </outline>
</glyph>
<glyph name="cedilla" format="1">
  <advance width="678"/>
  <unicode hex="00B8"/>
  <outline>
    <contour>
      <point x="199" y="0" type="move" name="_bot"/>
    </contour>
    <contour>
      <point x="226" y="-419" type="curve" smooth="yes"/>
      <point x="343" y="-419"/>
      <point x="426" y="-352"/>
      <point x="426" y="-234" type="curve"/>
      <point x="423" y="-118"/>
      <point x="313" y="-75"/>
      <point x="230" y="-70" type="curve"/>
      <point x="243" y="0" type="line"/>
      <point x="135" y="0" type="line"/>
      <point x="123" y="-123" type="line"/>
      <point x="254" y="-127"/>
      <point x="282" y="-169"/>
      <point x="282" y="-230" type="curve" smooth="yes"/>
      <point x="282" y="-290"/>
      <point x="239" y="-312"/>
      <point x="186" y="-312" type="curve" smooth="yes"/>
      <point x="143" y="-312"/>
      <point x="92" y="-296"/>
      <point x="56" y="-274" type="curve"/>
      <point x="27" y="-358" type="line"/>
      <point x="86" y="-397"/>
      <point x="158" y="-419"/>
    </contour>
  </outline>
</glyph>
<glyph name="uni00B9" format="1">
  <advance width="943"/>
  <unicode hex="00B9"/>
  <outline>
    <contour>
      <point x="419" y="638" type="line"/>
      <point x="663" y="638" type="line"/>
      <point x="663" y="1600" type="line"/>
      <point x="445" y="1609" type="line"/>
      <point x="197" y="1506" type="line"/>
      <point x="262" y="1339" type="line"/>
      <point x="419" y="1411" type="line"/>
    </contour>
  </outline>
</glyph>
<glyph name="guillemotright" format="1">
  <advance width="1508"/>
  <unicode hex="00BB"/>
  <outline>
    <contour>
      <point x="209" y="52" type="line"/>
      <point x="793" y="459" type="line"/>
      <point x="793" y="658" type="line"/>
      <point x="208" y="1063" type="line"/>
      <point x="208" y="804" type="line"/>
      <point x="531" y="559" type="line"/>
      <point x="209" y="313" type="line"/>
    </contour>
    <contour>
      <point x="816" y="52" type="line"/>
      <point x="1401" y="459" type="line"/>
      <point x="1401" y="658" type="line"/>
      <point x="816" y="1063" type="line"/>
      <point x="816" y="804" type="line"/>
      <point x="1138" y="559" type="line"/>
      <point x="816" y="313" type="line"/>
    </contour>
  </outline>
</glyph>
<glyph name="onequarter" format="1">
  <advance width="1990"/>
  <unicode hex="00BC"/>
  <outline>
    <contour>
      <point x="1772" y="-17" type="line"/>
      <point x="1772" y="208" type="line"/>
      <point x="1905" y="208" type="line"/>
      <point x="1905" y="374" type="line"/>
      <point x="1772" y="374" type="line"/>
      <point x="1772" y="1014" type="line"/>
      <point x="1588" y="1061" type="line"/>
      <point x="1100" y="351" type="line"/>
      <point x="1129" y="208" type="line"/>
      <point x="1571" y="208" type="line"/>
      <point x="1571" y="0" type="line"/>
    </contour>
    <contour>
      <point x="315" y="623" type="line"/>
      <point x="539" y="623" type="line"/>
      <point x="539" y="1494" type="line"/>
      <point x="379" y="1530" type="line"/>
      <point x="84" y="1399" type="line"/>
      <point x="148" y="1251" type="line"/>
      <point x="315" y="1329" type="line"/>
    </contour>
    <contour>
      <point x="564" y="-64" type="line"/>
      <point x="1521" y="1503" type="line"/>
      <point x="1359" y="1593" type="line"/>
      <point x="401" y="24" type="line"/>
    </contour>
    <contour>
      <point x="1317" y="373" type="line"/>
      <point x="1571" y="757" type="line"/>
      <point x="1571" y="373" type="line"/>
    </contour>
  </outline>
</glyph>
<glyph name="onehalf" format="1">
  <advance width="2058"/>
  <unicode hex="00BD"/>
  <outline>
    <contour>
      <point x="1284" y="0" type="line"/>
      <point x="1924" y="0" type="line"/>
      <point x="1924" y="173" type="line"/>
      <point x="1595" y="173" type="line"/>
      <point x="1613" y="188"/>
      <point x="1666" y="227"/>
      <point x="1689" y="246" type="curve"/>
      <point x="1838" y="360"/>
      <point x="1936" y="471"/>
      <point x="1936" y="615" type="curve" smooth="yes"/>
      <point x="1936" y="819"/>
      <point x="1777" y="902"/>
      <point x="1598" y="902" type="curve" smooth="yes"/>
      <point x="1479" y="902"/>
      <point x="1352" y="864"/>
      <point x="1257" y="800" type="curve"/>
      <point x="1314" y="634" type="line"/>
      <point x="1397" y="679"/>
      <point x="1492" y="710"/>
      <point x="1569" y="710" type="curve" smooth="yes"/>
      <point x="1649" y="710"/>
      <point x="1708" y="678"/>
      <point x="1708" y="595" type="curve" smooth="yes"/>
      <point x="1708" y="513"/>
      <point x="1656" y="446"/>
      <point x="1560" y="370" type="curve" smooth="yes"/>
      <point x="1532" y="348"/>
      <point x="1326" y="194"/>
      <point x="1284" y="157" type="curve"/>
    </contour>
    <contour>
      <point x="314" y="623" type="line"/>
      <point x="539" y="623" type="line"/>
      <point x="539" y="1494" type="line"/>
      <point x="379" y="1530" type="line"/>
      <point x="85" y="1399" type="line"/>
      <point x="148" y="1251" type="line"/>
      <point x="314" y="1329" type="line"/>
    </contour>
    <contour>
      <point x="564" y="-64" type="line"/>
      <point x="1521" y="1503" type="line"/>
      <point x="1360" y="1593" type="line"/>
      <point x="401" y="24" type="line"/>
    </contour>
  </outline>
</glyph>
<glyph name="multiply" format="1">
  <advance width="1229"/>
  <unicode hex="00D7"/>
  <outline>
    <contour>
      <point x="353" y="94" type="line"/>
      <point x="632" y="358" type="line"/>
      <point x="909" y="94" type="line"/>
      <point x="1068" y="265" type="line"/>
      <point x="801" y="520" type="line"/>
      <point x="1068" y="775" type="line"/>
      <point x="909" y="946" type="line"/>
      <point x="632" y="681" type="line"/>
      <point x="353" y="946" type="line"/>
      <point x="195" y="775" type="line"/>
      <point x="462" y="520" type="line"/>
      <point x="195" y="265" type="line"/>
    </contour>
  </outline>
</glyph>
<glyph name="Thorn" format="1">
  <advance width="1396"/>
  <unicode hex="00DE"/>
  <outline>
    <contour>
      <point x="170" y="0" type="line"/>
      <point x="489" y="0" type="line"/>
      <point x="489" y="332" type="line"/>
      <point x="533" y="332" type="line" smooth="yes"/>
      <point x="1005" y="332"/>
      <point x="1299" y="405"/>
      <point x="1299" y="813" type="curve" smooth="yes"/>
      <point x="1299" y="1146"/>
      <point x="1064" y="1218"/>
      <point x="608" y="1218" type="curve" smooth="yes"/>
      <point x="489" y="1218" type="line"/>
      <point x="489" y="1489" type="line"/>
      <point x="170" y="1489" type="line"/>
    </contour>
    <contour>
      <point x="489" y="543" type="line"/>
      <point x="489" y="1020" type="line"/>
      <point x="602" y="1020" type="line" smooth="yes"/>
      <point x="858" y="1020"/>
      <point x="982" y="988"/>
      <point x="982" y="782" type="curve" smooth="yes"/>
      <point x="982" y="576"/>
      <point x="812" y="543"/>
      <point x="578" y="543" type="curve" smooth="yes"/>
    </contour>
  </outline>
</glyph>
<glyph name="hbar" format="1">
  <advance width="1276"/>
  <unicode hex="0127"/>
  <outline>
    <contour>
      <point x="142" y="0" type="line"/>
      <point x="446" y="0" type="line"/>
      <point x="446" y="834" type="line"/>
      <point x="461" y="849"/>
      <point x="545" y="922"/>
      <point x="674" y="922" type="curve" smooth="yes"/>
      <point x="775" y="922"/>
      <point x="841" y="838"/>
      <point x="841" y="701" type="curve" smooth="yes"/>
      <point x="841" y="0" type="line"/>
      <point x="1145" y="0" type="line"/>
      <point x="1145" y="682" type="line" smooth="yes"/>
      <point x="1145" y="1001"/>
      <point x="964" y="1127"/>
      <point x="762" y="1127" type="curve" smooth="yes"/>
      <point x="632" y="1127"/>
      <point x="512" y="1070"/>
      <point x="446" y="989" type="curve"/>
      <point x="446" y="1234" type="line"/>
      <point x="745" y="1234" type="line"/>
      <point x="745" y="1379" type="line"/>
      <point x="446" y="1379" type="line"/>
      <point x="446" y="1541" type="line"/>
      <point x="142" y="1488" type="line"/>
      <point x="142" y="1379" type="line"/>
      <point x="15" y="1379" type="line"/>
      <point x="15" y="1234" type="line"/>
      <point x="142" y="1234" type="line"/>
    </contour>
  </outline>
</glyph>
<glyph name="kgreenlandic" format="1">
  <advance width="1246"/>
  <unicode hex="0138"/>
  <outline>
    <contour>
      <point x="140" y="0" type="line"/>
      <point x="444" y="0" type="line"/>
      <point x="444" y="383" type="line"/>
      <point x="535" y="467" type="line"/>
      <point x="874" y="0" type="line"/>
      <point x="1225" y="0" type="line"/>
      <point x="730" y="609" type="line"/>
      <point x="1220" y="1098" type="line"/>
      <point x="869" y="1098" type="line"/>
      <point x="444" y="645" type="line"/>
      <point x="444" y="1098" type="line"/>
      <point x="140" y="1098" type="line"/>
    </contour>
  </outline>
</glyph>
<glyph name="Lslash" format="1">
  <advance width="1137"/>
  <unicode hex="0141"/>
  <outline>
    <contour>
      <point x="1" y="414" type="line"/>
      <point x="723" y="899" type="line"/>
      <point x="723" y="1096" type="line"/>
      <point x="1" y="611" type="line"/>
    </contour>
    <component base="L"/>
  </outline>
</glyph>
<glyph name="lslash" format="1">
  <advance width="618"/>
  <unicode hex="0142"/>
  <outline>
    <contour>
      <point x="-14" y="478" type="line"/>
      <point x="634" y="865" type="line"/>
      <point x="634" y="1050" type="line"/>
      <point x="-14" y="652" type="line"/>
    </contour>
    <component base="l"/>
  </outline>
</glyph>
<glyph name="eng" format="1">
  <advance width="1275"/>
  <unicode hex="014B"/>
  <outline>
    <contour>
      <point x="412" y="965" type="curve"/>
      <point x="378" y="1096" type="line"/>
      <point x="148" y="1096" type="line"/>
      <point x="148" y="0" type="line"/>
      <point x="451" y="0" type="line"/>
      <point x="451" y="792" type="line"/>
      <point x="520" y="859"/>
      <point x="600" y="903"/>
      <point x="694" y="903" type="curve" smooth="yes"/>
      <point x="810" y="903"/>
      <point x="849" y="828"/>
      <point x="849" y="688" type="curve" smooth="yes"/>
      <point x="849" y="87" type="line" smooth="yes"/>
      <point x="849" y="-142"/>
      <point x="823" y="-188"/>
      <point x="606" y="-263" type="curve"/>
      <point x="701" y="-473" type="line"/>
      <point x="983" y="-416"/>
      <point x="1151" y="-307"/>
      <point x="1151" y="0" type="curve" smooth="yes"/>
      <point x="1151" y="700" type="line" smooth="yes"/>
      <point x="1151" y="1014"/>
      <point x="985" y="1116"/>
      <point x="789" y="1116" type="curve" smooth="yes"/>
      <point x="635" y="1116"/>
      <point x="507" y="1050"/>
    </contour>
  </outline>
</glyph>
<glyph name="oe" format="1">
  <advance width="1856"/>
  <unicode hex="0153"/>
  <outline>
    <contour>
      <point x="592" y="-23" type="curve" smooth="yes"/>
      <point x="756" y="-23"/>
      <point x="880" y="33"/>
      <point x="963" y="134" type="curve"/>
      <point x="1060" y="33"/>
      <point x="1203" y="-23"/>
      <point x="1380" y="-23" type="curve" smooth="yes"/>
      <point x="1504" y="-23"/>
      <point x="1633" y="10"/>
      <point x="1745" y="71" type="curve"/>
      <point x="1684" y="276" type="line"/>
      <point x="1606" y="217"/>
      <point x="1510" y="184"/>
      <point x="1403" y="184" type="curve" smooth="yes"/>
      <point x="1229" y="184"/>
      <point x="1136" y="306"/>
      <point x="1131" y="483" type="curve"/>
      <point x="1795" y="483" type="line"/>
      <point x="1796" y="503"/>
      <point x="1797" y="608"/>
      <point x="1797" y="630" type="curve" smooth="yes"/>
      <point x="1797" y="920"/>
      <point x="1646" y="1127"/>
      <point x="1351" y="1127" type="curve" smooth="yes"/>
      <point x="1183" y="1127"/>
      <point x="1054" y="1065"/>
      <point x="966" y="962" type="curve"/>
      <point x="882" y="1067"/>
      <point x="756" y="1127"/>
      <point x="591" y="1127" type="curve" smooth="yes"/>
      <point x="249" y="1127"/>
      <point x="61" y="905"/>
      <point x="61" y="549" type="curve" smooth="yes"/>
      <point x="61" y="196"/>
      <point x="247" y="-23"/>
    </contour>
    <contour>
      <point x="592" y="181" type="curve" smooth="yes"/>
      <point x="396" y="181"/>
      <point x="363" y="387"/>
      <point x="363" y="551" type="curve" smooth="yes"/>
      <point x="363" y="789"/>
      <point x="431" y="920"/>
      <point x="592" y="920" type="curve" smooth="yes"/>
      <point x="753" y="920"/>
      <point x="820" y="789"/>
      <point x="820" y="551" type="curve" smooth="yes"/>
      <point x="820" y="311"/>
      <point x="753" y="181"/>
    </contour>
    <contour>
      <point x="1123" y="639" type="curve"/>
      <point x="1128" y="740"/>
      <point x="1190" y="921"/>
      <point x="1346" y="921" type="curve" smooth="yes"/>
      <point x="1488" y="921"/>
      <point x="1556" y="824"/>
      <point x="1556" y="641" type="curve" smooth="yes"/>
      <point x="1556" y="637"/>
      <point x="1325" y="639"/>
    </contour>
  </outline>
</glyph>
<glyph name="uni02C9" format="1">
  <advance width="647"/>
  <unicode hex="02C9"/>
  <outline>
    <contour>
      <point x="330" y="1098" type="move" name="_top"/>
    </contour>
    <contour>
      <point x="330" y="1332" type="move" name="_mid"/>
    </contour>
    <contour>
      <point x="0" y="1259" type="line"/>
      <point x="647" y="1259" type="line"/>
      <point x="647" y="1405" type="line"/>
      <point x="0" y="1405" type="line"/>
    </contour>
  </outline>
</glyph>
<glyph name="dotaccent" format="1">
  <advance width="593"/>
  <unicode hex="02D9"/>
  <outline>
    <contour>
      <point x="295" y="1098" type="move" name="_top"/>
    </contour>
    <contour>
      <point x="293" y="1256" type="curve" smooth="yes"/>
      <point x="389" y="1256"/>
      <point x="464" y="1327"/>
      <point x="464" y="1426" type="curve" smooth="yes"/>
      <point x="464" y="1525"/>
      <point x="388" y="1596"/>
      <point x="293" y="1596" type="curve" smooth="yes"/>
      <point x="196" y="1596"/>
      <point x="125" y="1525"/>
      <point x="125" y="1426" type="curve" smooth="yes"/>
      <point x="125" y="1330"/>
      <point x="193" y="1256"/>
    </contour>
  </outline>
</glyph>
<glyph name="ring" format="1">
  <advance width="919"/>
  <unicode hex="02DA"/>
  <outline>
    <contour>
      <point x="467" y="1098" type="move" name="_top"/>
    </contour>
    <contour>
      <point x="441" y="1623" type="move" name="top"/>
    </contour>
    <contour>
      <point x="470" y="1348" type="curve" smooth="yes"/>
      <point x="394" y="1348"/>
      <point x="347" y="1396"/>
      <point x="347" y="1473" type="curve" smooth="yes"/>
      <point x="347" y="1549"/>
      <point x="394" y="1598"/>
      <point x="470" y="1598" type="curve" smooth="yes"/>
      <point x="548" y="1598"/>
      <point x="596" y="1549"/>
      <point x="596" y="1473" type="curve" smooth="yes"/>
      <point x="596" y="1396"/>
      <point x="548" y="1348"/>
    </contour>
    <contour>
      <point x="470" y="1234" type="curve" smooth="yes"/>
      <point x="627" y="1234"/>
      <point x="726" y="1326"/>
      <point x="726" y="1473" type="curve" smooth="yes"/>
      <point x="726" y="1619"/>
      <point x="627" y="1712"/>
      <point x="470" y="1712" type="curve" smooth="yes"/>
      <point x="316" y="1712"/>
      <point x="218" y="1619"/>
      <point x="218" y="1473" type="curve" smooth="yes"/>
      <point x="218" y="1326"/>
      <point x="316" y="1234"/>
    </contour>
  </outline>
</glyph>
<glyph name="ogonek" format="1">
  <advance width="653"/>
  <unicode hex="02DB"/>
  <outline>
    <contour>
      <point x="398" y="-470" type="curve" smooth="yes"/>
      <point x="426" y="-470"/>
      <point x="459" y="-465"/>
      <point x="494" y="-456" type="curve"/>
      <point x="494" y="-312" type="line"/>
      <point x="474" y="-316"/>
      <point x="455" y="-318"/>
      <point x="439" y="-318" type="curve" smooth="yes"/>
      <point x="360" y="-318"/>
      <point x="317" y="-274"/>
      <point x="317" y="-210" type="curve" smooth="yes"/>
      <point x="317" y="-161"/>
      <point x="343" y="-84"/>
      <point x="440" y="0" type="curve"/>
      <point x="312" y="0" type="line"/>
      <point x="203" y="-75"/>
      <point x="154" y="-171"/>
      <point x="154" y="-257" type="curve" smooth="yes"/>
      <point x="154" y="-373"/>
      <point x="246" y="-470"/>
    </contour>
  </outline>
</glyph>
<glyph name="uni0307" format="1">
  <advance width="593"/>
  <unicode hex="0307"/>
  <outline>
    <contour>
      <point x="285" y="1098" type="move" name="_top"/>
    </contour>
    <contour>
      <point x="286" y="1232" type="curve" smooth="yes"/>
      <point x="390" y="1232"/>
      <point x="455" y="1298"/>
      <point x="455" y="1402" type="curve" smooth="yes"/>
      <point x="455" y="1506"/>
      <point x="390" y="1572"/>
      <point x="286" y="1572" type="curve" smooth="yes"/>
      <point x="182" y="1572"/>
      <point x="116" y="1506"/>
      <point x="116" y="1402" type="curve" smooth="yes"/>
      <point x="116" y="1298"/>
      <point x="182" y="1232"/>
    </contour>
  </outline>
</glyph>
<glyph name="uni0358" format="1">
  <advance width="593"/>
  <unicode hex="0358"/>
  <outline>
    <contour>
      <point x="285" y="1098" type="move" name="_top"/>
    </contour>
    <contour>
      <point x="286" y="1232" type="curve" smooth="yes"/>
      <point x="390" y="1232"/>
      <point x="455" y="1298"/>
      <point x="455" y="1402" type="curve" smooth="yes"/>
      <point x="455" y="1506"/>
      <point x="390" y="1572"/>
      <point x="286" y="1572" type="curve" smooth="yes"/>
      <point x="182" y="1572"/>
      <point x="116" y="1506"/>
      <point x="116" y="1402" type="curve" smooth="yes"/>
      <point x="116" y="1298"/>
      <point x="182" y="1232"/>
    </contour>
  </outline>
</glyph>
<glyph name="Sigma" format="1">
  <advance width="1382"/>
  <unicode hex="03A3"/>
  <outline>
    <contour>
      <point x="148" y="0" type="line"/>
      <point x="1284" y="0" type="line"/>
      <point x="1284" y="232" type="line"/>
      <point x="508" y="232" type="line"/>
      <point x="1093" y="656" type="line"/>
      <point x="1093" y="859" type="line"/>
      <point x="524" y="1270" type="line"/>
      <point x="1241" y="1270" type="line"/>
      <point x="1241" y="1485" type="line"/>
      <point x="153" y="1485" type="line"/>
      <point x="153" y="1198" type="line"/>
      <point x="774" y="731" type="line"/>
      <point x="148" y="236" type="line"/>
    </contour>
  </outline>
</glyph>
<glyph name="uni03BC" format="1">
  <advance width="1282"/>
  <unicode hex="03BC"/>
  <outline>
    <contour>
      <point x="446" y="-311" type="line"/>
      <point x="446" y="56" type="line"/>
      <point x="484" y="16"/>
      <point x="534" y="-11"/>
      <point x="594" y="-11" type="curve" smooth="yes"/>
      <point x="707" y="-11"/>
      <point x="818" y="49"/>
      <point x="870" y="158" type="curve"/>
      <point x="936" y="0" type="line"/>
      <point x="1152" y="0" type="line"/>
      <point x="1152" y="1096" type="line"/>
      <point x="844" y="1096" type="line"/>
      <point x="844" y="275" type="line"/>
      <point x="800" y="223"/>
      <point x="709" y="190"/>
      <point x="632" y="190" type="curve" smooth="yes"/>
      <point x="512" y="190"/>
      <point x="446" y="266"/>
      <point x="446" y="389" type="curve" smooth="yes"/>
      <point x="446" y="1096" type="line"/>
      <point x="144" y="1096" type="line"/>
      <point x="144" y="-293" type="line"/>
    </contour>
  </outline>
</glyph>
<glyph name="pi" format="1">
  <advance width="1655"/>
  <unicode hex="03C0"/>
  <outline>
    <contour>
      <point x="1204" y="-15" type="curve" smooth="yes"/>
      <point x="1301" y="-15"/>
      <point x="1378" y="12"/>
      <point x="1436" y="66" type="curve"/>
      <point x="1436" y="220" type="line"/>
      <point x="1396" y="204"/>
      <point x="1348" y="189"/>
      <point x="1312" y="189" type="curve" smooth="yes"/>
      <point x="1215" y="189"/>
      <point x="1172" y="280"/>
      <point x="1172" y="466" type="curve" smooth="yes"/>
      <point x="1172" y="588"/>
      <point x="1185" y="702"/>
      <point x="1213" y="899" type="curve"/>
      <point x="1464" y="899" type="line"/>
      <point x="1464" y="1097" type="line"/>
      <point x="519" y="1097" type="line" smooth="yes"/>
      <point x="226" y="1097"/>
      <point x="129" y="966"/>
      <point x="129" y="721" type="curve"/>
      <point x="283" y="721" type="line"/>
      <point x="298" y="854"/>
      <point x="352" y="896"/>
      <point x="445" y="899" type="curve" smooth="yes"/>
      <point x="526" y="899" type="line"/>
      <point x="418" y="421" type="line" smooth="yes"/>
      <point x="358" y="162"/>
      <point x="252" y="152"/>
      <point x="130" y="160" type="curve"/>
      <point x="130" y="7" type="line"/>
      <point x="549" y="-45"/>
      <point x="630" y="127"/>
      <point x="663" y="362" type="curve" smooth="yes"/>
      <point x="738" y="899" type="line"/>
      <point x="990" y="899" type="line"/>
      <point x="954" y="647"/>
      <point x="917" y="475"/>
      <point x="917" y="315" type="curve" smooth="yes"/>
      <point x="917" y="118"/>
      <point x="978" y="-15"/>
    </contour>
  </outline>
</glyph>
<glyph name="endash" format="1">
  <advance width="964"/>
  <unicode hex="2013"/>
  <outline>
    <contour>
      <point x="165" y="538" type="line"/>
      <point x="785" y="538" type="line"/>
      <point x="785" y="766" type="line"/>
      <point x="165" y="766" type="line"/>
    </contour>
  </outline>
</glyph>
<glyph name="quoteright" format="1">
  <advance width="559"/>
  <unicode hex="2019"/>
  <outline>
    <contour>
      <point x="152" y="833" type="line"/>
      <point x="311" y="880"/>
      <point x="465" y="954"/>
      <point x="465" y="1163" type="curve" smooth="yes"/>
      <point x="465" y="1485" type="line"/>
      <point x="95" y="1485" type="line"/>
      <point x="95" y="1114" type="line"/>
      <point x="255" y="1114" type="line"/>
      <point x="255" y="1019"/>
      <point x="209" y="977"/>
      <point x="96" y="937" type="curve"/>
    </contour>
  </outline>
</glyph>
<glyph name="quotesinglbase" format="1">
  <advance width="680"/>
  <unicode hex="201A"/>
  <outline>
    <contour>
      <point x="221" y="-281" type="line"/>
      <point x="375" y="-235"/>
      <point x="534" y="-164"/>
      <point x="534" y="48" type="curve" smooth="yes"/>
      <point x="534" y="48"/>
      <point x="534" y="371"/>
      <point x="534" y="371" type="curve"/>
      <point x="164" y="371" type="line"/>
      <point x="164" y="0" type="line"/>
      <point x="323" y="0" type="line"/>
      <point x="323" y="-95"/>
      <point x="278" y="-137"/>
      <point x="164" y="-177" type="curve"/>
    </contour>
  </outline>
</glyph>
<glyph name="quotedblright" format="1">
  <advance width="994"/>
  <unicode hex="201D"/>
  <outline>
    <contour>
      <point x="146" y="833" type="line"/>
      <point x="306" y="879"/>
      <point x="460" y="953"/>
      <point x="460" y="1162" type="curve" smooth="yes"/>
      <point x="460" y="1485" type="line"/>
      <point x="89" y="1485" type="line"/>
      <point x="89" y="1114" type="line"/>
      <point x="249" y="1114" type="line"/>
      <point x="249" y="1019"/>
      <point x="203" y="977"/>
      <point x="90" y="936" type="curve"/>
    </contour>
    <contour>
      <point x="614" y="833" type="line"/>
      <point x="773" y="879"/>
      <point x="928" y="953"/>
      <point x="928" y="1162" type="curve" smooth="yes"/>
      <point x="928" y="1485" type="line"/>
      <point x="557" y="1485" type="line"/>
      <point x="557" y="1114" type="line"/>
      <point x="717" y="1114" type="line"/>
      <point x="718" y="1019"/>
      <point x="671" y="977"/>
      <point x="558" y="936" type="curve"/>
    </contour>
  </outline>
</glyph>
<glyph name="dagger" format="1">
  <advance width="1153"/>
  <unicode hex="2020"/>
  <outline>
    <contour>
      <point x="421" y="-181" type="line"/>
      <point x="736" y="-181" type="line"/>
      <point x="736" y="877" type="line"/>
      <point x="1045" y="877" type="line"/>
      <point x="1045" y="1085" type="line"/>
      <point x="735" y="1085" type="line"/>
      <point x="735" y="1489" type="line"/>
      <point x="421" y="1489" type="line"/>
      <point x="421" y="1085" type="line"/>
      <point x="107" y="1085" type="line"/>
      <point x="107" y="877" type="line"/>
      <point x="421" y="877" type="line"/>
    </contour>
  </outline>
</glyph>
<glyph name="bullet" format="1">
  <advance width="1115"/>
  <unicode hex="2022"/>
  <outline>
    <contour>
      <point x="558" y="305" type="curve" smooth="yes"/>
      <point x="758" y="305"/>
      <point x="919" y="466"/>
      <point x="919" y="643" type="curve" smooth="yes"/>
      <point x="919" y="841"/>
      <point x="738" y="982"/>
      <point x="552" y="982" type="curve" smooth="yes"/>
      <point x="361" y="982"/>
      <point x="194" y="828"/>
      <point x="194" y="643" type="curve" smooth="yes"/>
      <point x="194" y="443"/>
      <point x="373" y="305"/>
    </contour>
  </outline>
</glyph>
<glyph name="perthousand" format="1">
  <advance width="2878"/>
  <unicode hex="2030"/>
  <outline>
    <contour>
      <point x="2441" y="162" type="curve" smooth="yes"/>
      <point x="2346" y="162"/>
      <point x="2286" y="249"/>
      <point x="2286" y="387" type="curve" smooth="yes"/>
      <point x="2286" y="531"/>
      <point x="2346" y="620"/>
      <point x="2441" y="620" type="curve" smooth="yes"/>
      <point x="2535" y="620"/>
      <point x="2594" y="531"/>
      <point x="2594" y="387" type="curve" smooth="yes"/>
      <point x="2594" y="249"/>
      <point x="2535" y="162"/>
    </contour>
    <contour>
      <point x="2441" y="-17" type="curve" smooth="yes"/>
      <point x="2659" y="-17"/>
      <point x="2796" y="139"/>
      <point x="2796" y="387" type="curve" smooth="yes"/>
      <point x="2796" y="637"/>
      <point x="2659" y="794"/>
      <point x="2441" y="794" type="curve" smooth="yes"/>
      <point x="2222" y="794"/>
      <point x="2085" y="637"/>
      <point x="2085" y="387" type="curve" smooth="yes"/>
      <point x="2085" y="139"/>
      <point x="2222" y="-17"/>
    </contour>
    <component base="percent"/>
  </outline>
</glyph>
<glyph name="guilsinglleft" format="1">
  <advance width="992"/>
  <unicode hex="2039"/>
  <outline>
    <contour>
      <point x="851" y="52" type="line"/>
      <point x="851" y="313" type="line"/>
      <point x="450" y="559" type="line"/>
      <point x="851" y="804" type="line"/>
      <point x="851" y="1063" type="line"/>
      <point x="188" y="658" type="line"/>
      <point x="188" y="459" type="line"/>
    </contour>
  </outline>
</glyph>
<glyph name="uni2074" format="1">
  <advance width="1044"/>
  <unicode hex="2074"/>
  <outline>
    <contour>
      <point x="601" y="508" type="line"/>
      <point x="801" y="512" type="line"/>
      <point x="801" y="732" type="line"/>
      <point x="935" y="732" type="line"/>
      <point x="935" y="899" type="line"/>
      <point x="801" y="899" type="line"/>
      <point x="801" y="1552" type="line"/>
      <point x="609" y="1598" type="line"/>
      <point x="106" y="876" type="line"/>
      <point x="135" y="732" type="line"/>
      <point x="601" y="732" type="line"/>
    </contour>
    <contour>
      <point x="331" y="898" type="line"/>
      <point x="601" y="1301" type="line"/>
      <point x="601" y="898" type="line"/>
    </contour>
  </outline>
</glyph>
<glyph name="afii61289" format="1">
  <advance width="960"/>
  <unicode hex="2113"/>
  <outline>
    <contour>
      <point x="625" y="-15" type="curve" smooth="yes"/>
      <point x="734" y="-15"/>
      <point x="833" y="9"/>
      <point x="902" y="45" type="curve"/>
      <point x="856" y="235" type="line"/>
      <point x="801" y="215"/>
      <point x="746" y="201"/>
      <point x="693" y="201" type="curve" smooth="yes"/>
      <point x="625" y="201"/>
      <point x="555" y="224"/>
      <point x="555" y="334" type="curve" smooth="yes"/>
      <point x="555" y="913" type="line"/>
      <point x="743" y="1088" type="line" smooth="yes"/>
      <point x="838" y="1175"/>
      <point x="882" y="1260"/>
      <point x="882" y="1345" type="curve" smooth="yes"/>
      <point x="882" y="1495"/>
      <point x="753" y="1606"/>
      <point x="582" y="1606" type="curve" smooth="yes"/>
      <point x="392" y="1606"/>
      <point x="270" y="1482"/>
      <point x="270" y="1278" type="curve" smooth="yes"/>
      <point x="270" y="887" type="line"/>
      <point x="90" y="721" type="line"/>
      <point x="90" y="543" type="line"/>
      <point x="270" y="710" type="line"/>
      <point x="270" y="353" type="line" smooth="yes"/>
      <point x="270" y="53"/>
      <point x="454" y="-15"/>
    </contour>
    <contour>
      <point x="555" y="1103" type="line"/>
      <point x="555" y="1274" type="line" smooth="yes"/>
      <point x="555" y="1356"/>
      <point x="597" y="1388"/>
      <point x="639" y="1388" type="curve" smooth="yes"/>
      <point x="684" y="1388"/>
      <point x="711" y="1357"/>
      <point x="711" y="1313" type="curve" smooth="yes"/>
      <point x="711" y="1277"/>
      <point x="692" y="1237"/>
      <point x="658" y="1203" type="curve" smooth="yes"/>
    </contour>
  </outline>
</glyph>
<glyph name="Omega" format="1">
  <advance width="1770"/>
  <unicode hex="2126"/>
  <outline>
    <contour>
      <point x="152" y="0" type="line"/>
      <point x="800" y="0" type="line"/>
      <point x="799" y="143" type="line"/>
      <point x="587" y="266"/>
      <point x="421" y="519"/>
      <point x="421" y="820" type="curve" smooth="yes"/>
      <point x="421" y="1137"/>
      <point x="636" y="1297"/>
      <point x="933" y="1297" type="curve" smooth="yes"/>
      <point x="1259" y="1297"/>
      <point x="1432" y="1102"/>
      <point x="1432" y="815" type="curve" smooth="yes"/>
      <point x="1432" y="512"/>
      <point x="1258" y="268"/>
      <point x="1050" y="143" type="curve"/>
      <point x="1051" y="0" type="line"/>
      <point x="1693" y="0" type="line"/>
      <point x="1711" y="168" type="line"/>
      <point x="1357" y="168" type="line"/>
      <point x="1544" y="324"/>
      <point x="1705" y="542"/>
      <point x="1705" y="835" type="curve" smooth="yes"/>
      <point x="1705" y="1212"/>
      <point x="1437" y="1519"/>
      <point x="938" y="1519" type="curve" smooth="yes"/>
      <point x="457" y="1519"/>
      <point x="149" y="1244"/>
      <point x="149" y="839" type="curve" smooth="yes"/>
      <point x="149" y="552"/>
      <point x="281" y="329"/>
      <point x="487" y="168" type="curve"/>
      <point x="131" y="168" type="line"/>
    </contour>
  </outline>
</glyph>
<glyph name="estimated" format="1">
  <advance width="1149"/>
  <unicode hex="212E"/>
  <outline>
    <contour>
      <point x="620" y="128" type="curve" smooth="yes"/>
      <point x="748" y="128"/>
      <point x="908" y="168"/>
      <point x="996" y="242" type="curve"/>
      <point x="949" y="346" type="line"/>
      <point x="904" y="311"/>
      <point x="792" y="242"/>
      <point x="651" y="242" type="curve" smooth="yes"/>
      <point x="549" y="242"/>
      <point x="449" y="274"/>
      <point x="384" y="348" type="curve"/>
      <point x="384" y="684" type="line"/>
      <point x="1024" y="684" type="line"/>
      <point x="1030" y="716"/>
      <point x="1034" y="749"/>
      <point x="1034" y="783" type="curve" smooth="yes"/>
      <point x="1034" y="1059"/>
      <point x="898" y="1264"/>
      <point x="611" y="1264" type="curve" smooth="yes"/>
      <point x="277" y="1264"/>
      <point x="119" y="995"/>
      <point x="119" y="690" type="curve" smooth="yes"/>
      <point x="119" y="380"/>
      <point x="284" y="128"/>
    </contour>
    <contour>
      <point x="384" y="786" type="line"/>
      <point x="384" y="1060" type="line"/>
      <point x="434" y="1114"/>
      <point x="513" y="1147"/>
      <point x="612" y="1147" type="curve" smooth="yes"/>
      <point x="702" y="1147"/>
      <point x="766" y="1116"/>
      <point x="810" y="1066" type="curve"/>
      <point x="810" y="786" type="line"/>
    </contour>
  </outline>
</glyph>
<glyph name="minus" format="1">
  <advance width="818"/>
  <unicode hex="2212"/>
  <outline>
    <contour>
      <point x="87" y="459" type="line"/>
      <point x="729" y="459" type="line"/>
      <point x="729" y="671" type="line"/>
      <point x="87" y="671" type="line"/>
    </contour>
  </outline>
</glyph>
<glyph name="integral" format="1">
  <advance width="1213"/>
  <unicode hex="222B"/>
  <outline>
    <contour>
      <point x="302" y="-398" type="curve" smooth="yes"/>
      <point x="524" y="-398"/>
      <point x="666" y="-252"/>
      <point x="703" y="86" type="curve" smooth="yes"/>
      <point x="814" y="1088" type="line" smooth="yes"/>
      <point x="837" y="1284"/>
      <point x="903" y="1325"/>
      <point x="977" y="1325" type="curve" smooth="yes"/>
      <point x="1024" y="1325"/>
      <point x="1072" y="1324"/>
      <point x="1123" y="1309" type="curve"/>
      <point x="1145" y="1530" type="line"/>
      <point x="1064" y="1547"/>
      <point x="993" y="1554"/>
      <point x="923" y="1554" type="curve" smooth="yes"/>
      <point x="700" y="1554"/>
      <point x="546" y="1421"/>
      <point x="510" y="1088" type="curve" smooth="yes"/>
      <point x="401" y="94" type="line"/>
      <point x="377" y="-125"/>
      <point x="315" y="-172"/>
      <point x="248" y="-172" type="curve" smooth="yes"/>
      <point x="201" y="-172"/>
      <point x="153" y="-167"/>
      <point x="101" y="-150" type="curve"/>
      <point x="80" y="-369" type="line"/>
      <point x="163" y="-390"/>
      <point x="232" y="-398"/>
    </contour>
  </outline>
</glyph>
<glyph name="lessequal" format="1">
  <advance width="1419"/>
  <unicode hex="2264"/>
  <outline>
    <contour>
      <point x="1129" y="347" type="line"/>
      <point x="1235" y="543" type="line"/>
      <point x="601" y="865" type="line"/>
      <point x="1235" y="1186" type="line"/>
      <point x="1129" y="1382" type="line"/>
      <point x="141" y="865" type="line"/>
    </contour>
    <contour>
      <point x="210" y="0" type="line"/>
      <point x="1199" y="0" type="line"/>
      <point x="1199" y="184" type="line"/>
      <point x="210" y="184" type="line"/>
    </contour>
  </outline>
</glyph>
<glyph name="uniFB01" format="1">
  <advance width="1396"/>
  <unicode hex="FB01"/>
  <outline>
    <contour>
      <point x="194" y="0" type="line"/>
      <point x="498" y="0" type="line"/>
      <point x="498" y="949" type="line"/>
      <point x="934" y="949" type="line"/>
      <point x="934" y="0" type="line"/>
      <point x="1237" y="0" type="line"/>
      <point x="1237" y="1097" type="line"/>
      <point x="499" y="1097" type="line"/>
      <point x="499" y="1104"/>
      <point x="499" y="1143"/>
      <point x="500" y="1149" type="curve" smooth="yes"/>
      <point x="505" y="1324"/>
      <point x="588" y="1338"/>
      <point x="639" y="1338" type="curve" smooth="yes"/>
      <point x="685" y="1338"/>
      <point x="737" y="1334"/>
      <point x="782" y="1322" type="curve"/>
      <point x="782" y="1542" type="line"/>
      <point x="710" y="1556"/>
      <point x="643" y="1562"/>
      <point x="574" y="1562" type="curve" smooth="yes"/>
      <point x="370" y="1564"/>
      <point x="205" y="1453"/>
      <point x="195" y="1162" type="curve" smooth="yes"/>
      <point x="195" y="1153"/>
      <point x="194" y="1108"/>
      <point x="194" y="1097" type="curve"/>
      <point x="12" y="1097" type="line"/>
      <point x="12" y="949" type="line"/>
      <point x="194" y="949" type="line"/>
    </contour>
    <contour>
      <point x="1087" y="1264" type="curve" smooth="yes"/>
      <point x="1182" y="1264"/>
      <point x="1257" y="1337"/>
      <point x="1257" y="1433" type="curve" smooth="yes"/>
      <point x="1257" y="1527"/>
      <point x="1182" y="1604"/>
      <point x="1087" y="1604" type="curve" smooth="yes"/>
      <point x="992" y="1604"/>
      <point x="918" y="1527"/>
      <point x="918" y="1433" type="curve" smooth="yes"/>
      <point x="918" y="1340"/>
      <point x="989" y="1264"/>
    </contour>
  </outline>
</glyph>
<glyph name="uniFB04" format="1">
  <advance width="2263"/>
  <unicode hex="FB04"/>
  <outline>
    <contour>
      <point x="227" y="0" type="line"/>
      <point x="529" y="0" type="line"/>
      <point x="529" y="927" type="line"/>
      <point x="1005" y="927" type="line"/>
      <point x="1005" y="0" type="line"/>
      <point x="1309" y="0" type="line"/>
      <point x="1309" y="927" type="line"/>
      <point x="1585" y="927" type="line"/>
      <point x="1585" y="1096" type="line"/>
      <point x="1310" y="1096" type="line"/>
      <point x="1310" y="1144" type="line"/>
      <point x="1314" y="1314"/>
      <point x="1404" y="1362"/>
      <point x="1537" y="1362" type="curve" smooth="yes"/>
      <point x="1602" y="1362"/>
      <point x="1676" y="1350"/>
      <point x="1754" y="1336" type="curve"/>
      <point x="1754" y="0" type="line"/>
      <point x="2057" y="0" type="line"/>
      <point x="2057" y="1507" type="line"/>
      <point x="1848" y="1542"/>
      <point x="1654" y="1572"/>
      <point x="1492" y="1572" type="curve" smooth="yes"/>
      <point x="1203" y="1572"/>
      <point x="1005" y="1473"/>
      <point x="1005" y="1148" type="curve" smooth="yes"/>
      <point x="1005" y="1096" type="line"/>
      <point x="529" y="1096" type="line"/>
      <point x="529" y="1166" type="line" smooth="yes"/>
      <point x="529" y="1317"/>
      <point x="609" y="1345"/>
      <point x="684" y="1345" type="curve" smooth="yes"/>
      <point x="728" y="1346"/>
      <point x="784" y="1333"/>
      <point x="831" y="1317" type="curve"/>
      <point x="878" y="1503" type="line"/>
      <point x="810" y="1540"/>
      <point x="712" y="1566"/>
      <point x="602" y="1567" type="curve" smooth="yes"/>
      <point x="434" y="1569"/>
      <point x="227" y="1489"/>
      <point x="227" y="1143" type="curve" smooth="yes"/>
      <point x="227" y="1096" type="line"/>
      <point x="42" y="1096" type="line"/>
      <point x="42" y="927" type="line"/>
      <point x="227" y="927" type="line"/>
    </contour>
  </outline>
</glyph>
<glyph name="caron.alt" format="1">
  <advance width="566"/>
  <outline>
    <contour>
      <point x="28" y="1098" type="move" name="_caron.alt"/>
    </contour>
    <component base="comma" xOffset="1" yOffset="1486"/>
  </outline>
</glyph>
